<?xml version="1.0" encoding="UTF-8"?>
<svg id="Layer_2" data-name="Layer 2" xmlns="http://www.w3.org/2000/svg" viewBox="0 0 168.34 218.42">
  <defs>
    <style>
      .cls-1, .cls-2, .cls-3, .cls-4, .cls-5, .cls-6, .cls-7, .cls-8, .cls-9, .cls-10, .cls-11 {
        fill: none;
      }

      .cls-1, .cls-2, .cls-3, .cls-4, .cls-5, .cls-6, .cls-7, .cls-8, .cls-10, .cls-11 {
        stroke: #231f20;
      }

      .cls-1, .cls-2, .cls-3, .cls-6, .cls-8 {
        stroke-linecap: round;
      }

      .cls-1, .cls-2, .cls-6, .cls-10, .cls-11 {
        stroke-width: .25px;
      }

      .cls-1, .cls-3, .cls-5, .cls-7, .cls-9, .cls-10 {
        stroke-miterlimit: 3.86;
      }

      .cls-2, .cls-8 {
        stroke-linejoin: bevel;
      }

      .cls-3, .cls-4, .cls-7, .cls-8, .cls-9 {
        stroke-width: .5px;
      }

      .cls-12 {
        fill: #876a46;
      }

      .cls-12, .cls-13, .cls-14, .cls-15, .cls-16, .cls-17, .cls-18, .cls-19, .cls-20, .cls-21, .cls-22, .cls-23, .cls-24, .cls-25, .cls-26, .cls-27 {
        stroke-width: 0px;
      }

      .cls-12, .cls-13, .cls-14, .cls-15, .cls-16, .cls-17, .cls-18, .cls-20, .cls-22, .cls-24, .cls-25, .cls-26, .cls-27 {
        fill-rule: evenodd;
      }

      .cls-13 {
        fill: #033;
      }

      .cls-14 {
        fill: #e2e7ea;
      }

      .cls-4, .cls-11 {
        stroke-miterlimit: 3.86;
      }

      .cls-15 {
        fill: #366;
      }

      .cls-16 {
        fill: #633;
      }

      .cls-17 {
        fill: #002724;
      }

      .cls-6 {
        stroke-linejoin: round;
      }

      .cls-18 {
        fill: #666;
      }

      .cls-19, .cls-22 {
        fill: #231f20;
      }

      .cls-20 {
        fill: #cff;
      }

      .cls-21 {
        fill: #e5e5c9;
      }

      .cls-23 {
        fill: #444556;
      }

      .cls-24 {
        fill: #09f;
      }

      .cls-9 {
        stroke: #444556;
      }

      .cls-25 {
        fill: #ebd8df;
      }

      .cls-26 {
        fill: #300;
      }

      .cls-27 {
        fill: #999;
      }
    </style>
  </defs>
  <g id="Layer_1-2" data-name="Layer 1">
    <g>
      <path class="cls-21" d="m.31,128.45c7.81,10.64,18.58,19.07,31.69,23.84,36.91,13.43,78.33-7.28,92.52-46.27,14.19-38.99-4.23-81.48-41.13-94.91-18.46-6.72-38.08-4.92-54.81,3.46C51.2.06,80.52-4.02,108.22,6.06c46.47,16.92,70.81,67.29,54.35,112.51-16.46,45.22-67.47,68.17-113.95,51.25-21.62-7.87-38.15-22.91-48.31-41.37Z"/>
      <path class="cls-14" d="m65.82,120.4s2.58.61,5.97.69c3.39.08,5.2,1.13,5.2,1.13-.04.14-.02.31-.08.52-.24.89-.48,1.53.65,1.61,1.13.08.4-1.13,1.05-.65.65.48.16,1.05.81,1.05s.65-1.29.65-1.29l.05.14c-.69-1.29-3.32-2.15-3.32-2.15l.1.12c-.08-.04-.18-.08-.3-.12-.73-.24-.56-1.29.32-1.45.89-.16-.48-.56-.24-1.37.24-.81,1.21.4,1.37-.56.07-.39.01-.86.01-1.29l.13-.22s2.76.34,4.05,1.07l.07.04c0-.27.07-.88-.32-1.37-.56-.73-1.05.4-1.69.4s-.08-1.21-1.37-1.13c-.48.03-.63.33-.73.65,0,0-6.48-2.81-9.5-3.97-2.92,1.96-3.99,4.63-3.16,8.28l.28-.12Z"/>
      <path class="cls-7" d="m.31,128.45c7.81,10.64,18.58,19.07,31.69,23.84,36.91,13.43,78.33-7.28,92.52-46.27,14.19-38.99-4.23-81.48-41.13-94.91-18.46-6.72-38.08-4.92-54.81,3.46C51.2.06,80.52-4.02,108.22,6.06c46.47,16.92,70.81,67.29,54.35,112.51-16.46,45.22-67.47,68.17-113.95,51.25-21.62-7.87-38.15-22.91-48.31-41.37Z"/>
      <rect class="cls-19" x="136.19" y="97.49" width="1.33" height="3.71" rx=".44" ry=".44" transform="translate(-32.23 96.44) rotate(-34.99)"/>
      <rect class="cls-9" x="136.19" y="97.49" width="1.33" height="3.71" rx=".44" ry=".44" transform="translate(-32.23 96.44) rotate(-34.99)"/>
      <rect class="cls-19" x="139.7" y="97.13" width="1.33" height="3.71" rx=".44" ry=".44" transform="translate(-31.39 98.39) rotate(-34.99)"/>
      <rect class="cls-9" x="139.7" y="97.13" width="1.33" height="3.71" rx=".44" ry=".44" transform="translate(-31.39 98.39) rotate(-34.99)"/>
      <rect class="cls-19" x="143.49" y="97.05" width="1.33" height="3.71" rx=".44" ry=".44" transform="translate(-30.66 100.59) rotate(-35.01)"/>
      <rect class="cls-9" x="143.49" y="97.05" width="1.33" height="3.71" rx=".44" ry=".44" transform="translate(-30.66 100.59) rotate(-35.01)"/>
      <rect class="cls-19" x="146.56" y="96.73" width="1.33" height="3.71" rx=".44" ry=".44" transform="translate(-29.92 102.29) rotate(-35.01)"/>
      <rect class="cls-9" x="146.56" y="96.73" width="1.33" height="3.71" rx=".44" ry=".44" transform="translate(-29.92 102.29) rotate(-35.01)"/>
      <path class="cls-14" d="m75.71,87.32s1.33,6.7,1.57,7.62c.24.93,2.94,7.34,3.59,8.43s3.59,2.42,8.31,2.66c4.72.24,10.29-.52,11.29-2.14.91-1.46,5.98-12.35,7-14.54,0,0-1.27-.5-1.31-.7-.04-.2-.6-.44-1.05-.56s-1.69,2.38-2.5,3.55c-.81,1.17-5.57,6.49-5.65,7.3-.08.81-.77.52-1.69.36-.93-.16-.81.97-1.53,1.13-.73.16-.97-.81-1.86-1.01-.89-.2-.56.81-1.45.89-.89.08-.4-1.01-1.09-1.09-.69-.08-1.01.97-1.94.85-.93-.12-.12-1.57-1.05-1.73-.93-.16-1.25.81-2.06.56-.81-.24.16-1.05-.2-1.53s-.48.2-1.49.16c-1.01-.04.16-.97.16-1.49s-.93.12-1.65-.24c-.73-.36.61-.81.61-.81.24,0,.12-.24-.69-.85-.81-.6-.97-2.66-1.29-3.63-.32-.97-.69-1.69-1.05-2.22s.17-.96.17-.96c-1.35.07-3.19.27-3.19.27l.05-.28Z"/>
      <path class="cls-4" d="m75.71,87.32s1.33,6.7,1.57,7.62c.24.93,2.94,7.34,3.59,8.43s3.59,2.42,8.31,2.66c4.72.24,10.29-.52,11.29-2.14.91-1.46,5.98-12.35,7-14.54,0,0-1.27-.5-1.31-.7-.04-.2-.6-.44-1.05-.56s-1.69,2.38-2.5,3.55c-.81,1.17-5.57,6.49-5.65,7.3-.08.81-.77.52-1.69.36-.93-.16-.81.97-1.53,1.13-.73.16-.97-.81-1.86-1.01-.89-.2-.56.81-1.45.89-.89.08-.4-1.01-1.09-1.09-.69-.08-1.01.97-1.94.85-.93-.12-.12-1.57-1.05-1.73-.93-.16-1.25.81-2.06.56-.81-.24.16-1.05-.2-1.53s-.48.2-1.49.16c-1.01-.04.16-.97.16-1.49s-.93.12-1.65-.24c-.73-.36.61-.81.61-.81.24,0,.12-.24-.69-.85-.81-.6-.97-2.66-1.29-3.63-.32-.97-.69-1.69-1.05-2.22s.17-.96.17-.96c-1.35.07-3.19.27-3.19.27l.05-.28Z"/>
      <path class="cls-23" d="m111.34,108.56l24.87-9.66,14.76.32c1.04.72,1.32,1.82,1.57,3.31l-.63,1.07-14.69,1.14-23.01,10.78-2.89-6.96Z"/>
      <path class="cls-18" d="m91.58,128.16c.59.11,1.48-.96,1.23-1.63,0,0-.47-.44-1.01-.98l-.28-.02c1.15.38,2.43.36,3.63-.15,2.62-1.11,3.84-4.14,2.73-6.76-1.11-2.62-4.14-3.84-6.76-2.73-1.69.72-2.86,2.26-3.1,3.95-.51-.11-.98-.18-1.14-.25-.35-.16-3.12-1.36-4.47-2.1.02-.21.04-.79-.42-1.37-.56-.73-1.05.4-1.69.4s-.08-1.21-1.37-1.13c-.52.03-.67.28-.75.63-.45-.19-6.57-2.84-9.47-3.96l-.42-.47c.26-.15.52-.3.8-.45,16.88-7.61,31.01-8.46,42.38-2.54l1.57,4.26c-.17,0-.34.09-.42.45-.16.73,1.01,1.49,1.82,1.94l-.03.27c-3.64,12.29-14.07,21.86-31.27,28.72-5.76,1.87-10.28.45-13.87-4.47.32-.19.56-.26.56-.26,0,0-1.61-2.18-2.1-3.31-.48-1.13-1.86-1.53-1.86-1.53l1.94.16s.08-.48-.24-2.18c-.32-1.69,2.42-5.16,3.23-7.34.05-.15.1-.3.13-.44l-.03-.26,2.02,4.77-.24-.57,3.71,8.74c.21.55.81.07.42-.81l-.66-1.55s-.25-.51.11-.94c.3-.36.1-.77-.11-1.27l-1.97-4.64.12.28-1.97-4.64c-.21-.49-.36-.93-.83-.96-.2-.01-.44-.03-.56-.12-.23-1.24-.8-2.19-.8-2.19l.31.14c.43.03.88.05,1.35.06,3.39.08,5.2,1.17,5.2,1.17-.04.14-.02.27-.08.48-.24.89-.48,1.53.65,1.61,1.13.08.4-1.13,1.05-.65s.16,1.05.81,1.05.69-1.17.69-1.17"/>
      <path class="cls-18" d="m85.55,131.81c.32.2,1.01.69,1.29.44.28-.24.4-1.37-.48-1.77-.89-.4-1.33-.4-1.33-.73v-1.09s1.45.44,2.06,1.09"/>
      <path class="cls-14" d="m118.48,119.35c-.3-.43-.6-.89-.86-1.31-.25-.05-1.34-.18-1.9,1.31-.65,1.69-.24,1.86-.4,2.5s-.56,2.34-.56,2.34l-1.69-.4s.9,1.25,1.67,1.93c1.18-.08,4.44-.35,5.8-.78l.12-.16c.08.72.75.98,1.49.42.43-.32.35-.77.35-1.1-.81.44-1.64-.07-1.64-.07l-.2.03c-.02-.53-.17-.78-.78-1.04-.77-.32-.93,1.65-1.9.85-.97-.81.16-1.29.65-1.73.48-.44-.24-.77-1.01-.56-.77.2-.81-.4-.65-1.29.16-.89.65-.32.93-.04s.56-.61.56-.61l.02-.28Z"/>
      <path class="cls-14" d="m126.42,118.3v.06c.09.85.33,2.42-.64,3.03,0,0-1.94,1.52-2.85,2.24h.09c1.05.04.24,1.25,1.33,1.29,1.09.04,1.45-.4,1.29-1.33s1.01-.28,1.69.04c.69.32,1.17-.65.61-1.25-.56-.61-1.17-.65-.73-1.25s1.01.4,1.21-.48c.2-.89.2-2.06-.52-1.86s-1.09.12-1.33-.24l-.14-.24Z"/>
      <path class="cls-16" d="m63.89,150.28c-.09.47-.15.85-.13,1.05.08.73-1.45.65-1.69,2.58-.24,1.94.24,5.08.24,5.08,0,0,2.02-5.08,2.82-5.81.81-.73-1.21-2.74-1.21-2.74l-.04-.16Z"/>
      <path class="cls-16" d="m64.33,147.94l1.69-.56s.65-.24,1.53-.73c.89-.48.08-2.9.32-4.76.24-1.86,1.94-2.34,1.94-2.34,0,0-1.61-2.18-2.1-3.31-.48-1.13-1.86-1.53-1.86-1.53l1.94.16s.08-.48-.24-2.18c-.32-1.69,2.42-5.16,3.23-7.34.78-2.1-.54-4.32-.64-4.48-2.54-.19-4.53-.55-4.53-.55.05.22.11.45.17.68,0,0-.4.65-1.21.56-.81-.08-1.61.08-1.61.08l-2.58-.32s1.77.89,2.18,1.69c.4.81,0,1.45.65,1.69.65.24,2.02.89,2.02.89,0,0-.89,2.34-.81,3.47.08,1.13-.08.65-.08.65l-2.34-.89s1.05,1.21,1.29,2.02c.24.81.24,1.45.24,1.45l1.05.4-.08,2.02s-1.13-.65-1.61-.4c-.48.24-1.37.73-1.37.73,0,0-.24,1.37.81,2.18,1.05.81,1.45,1.29,1.69,2.1.24.81.97,1.77.97,1.77,0,0-.32,4.68-.32,5.49,0,.23-.21.86-.32,1.37Z"/>
      <path class="cls-16" d="m125.56,123.74s1.69,4.28,2.58,5.16-.65,1.37-.65,1.37l-.08,1.21-2.5.81s2.34.65,2.5,1.21c.16.56.24-.56.89-.48s1.37-.08,1.37-.08c0,0,3.07,4.44,3.23,4.76.16.32-1.61,1.05-1.61,1.05l-.17-.3c-.07-.14-.27-.49-.69-.98-.41-.46-4.08-1.83-8.63-3.15,0,0-.97-2.34-2.5-3.95-1.53-1.61-2.5-2.74-2.5-2.74l-2.58-.16s1.61-1.05.81-1.61c-.08-.06-.17-.12-.26-.2,1.22-.09,4.57-.26,5.91-.68.15.6.78.78,1.46.27.81-.6-.16-1.61.89-1.57,1.05.04.24,1.25,1.33,1.29.81.03,1.22-.21,1.31-.72l-.1-.49Z"/>
      <path class="cls-16" d="m130.64,149.23l1.21,2.98-.56-.08-2.34,1.61.97.16,1.05.65,2.26-.56s.56,1.29.81,3.87c.24,2.58,1.37,3.31,2.02,2.66.65-.65.97-7.1.48-10.81-.48-3.71-3.15-9.68-3.15-9.68l-1.21-.11c.84,1.04,1.39,1.95,1.61,3.26.32,1.86.08,3.07-.73,4.03-.54.65-1.44,1.44-2.42,2.02Z"/>
      <path class="cls-16" d="m112.17,158.03s.48-1.21,4.2.08c3.71,1.29,5.97,2.1,8.87.89,2.9-1.21,3.39-3.07,3.39-5.65s.64-3.51.64-3.51l-.07.05c-1.29.81-2.18.4-3.39,1.05s-6.05,3.95-9.6,5.32c-.89.34-2.23.87-3.78,1.48l-.25.29Z"/>
      <path class="cls-13" d="m82.76,63.24l-.07.07c-.18.18-.67.68-1.33,1.18,0,0-.7-.69-.3-2.06.4-1.37.81-3.07,1.77-4.11.97-1.05,2.74-2.26,5.73-.89,1.49.69,3.58,2.1,5.46,3.4,0,0,5.35,1.92,8.41,3.7,3.07,1.77,4.73,7.99.86,8.63-1.71-1.56-9.15-8.24-10.86-8.31-1.94-.08-6.29-.65-8.07-1.45-.78-.35-1.19-.28-1.61-.16Z"/>
      <path class="cls-27" d="m103.5,73.27c.33.48,1.89,2.92,1.31,5.8-.65,3.23-4.03,4.92-5.65,4.92s-3.31-1.69-3.31-1.69c-.44-.38-.34-.37.04-.4,1.38-.08,2.62-.32,3.49-1-3.15,1.49-4.58.11-4.58.11.67-.16.94-.2,1.15-.32.23-.13.41-.35.94-.89.91-.91-.43-2.79-1.85-4.06v.19c-.57.2-1.5,1.65-1.5,1.65,0,0-.12-.04-.28-.85-.16-.81.25-2.35.25-2.35-.88-1.04-1.1-2.31-.98-4.27.16-2.5-1-5.3-1-5.3.34.03.66.05.92.06,1.77.07,9.65,7.2,11.01,8.45l.02-.05Zm-24.1-4s-.04.36-.24,1.01c-.2.65-.48,1.41-.56,2.3-.08.89,0,1.86.04,2.42.04.56-.08.85-.08,1.45s-.08,1.48.03,2.08c-.79-.39-3.29-1.9-4.51-4.87-1.45-3.55,3.15-7.42,5-7.91,1.86-.48,3.63-2.5,3.63-2.5,0,0-.77,1.29-1.69,2.02-.93.73-1.49,1.29-1.65,1.86-.16.56-.2,1.13,0,1.73l.04.4Z"/>
      <path class="cls-14" d="m84.01,160.63l-.16.1c-1.77,1.21-2.42,2.9-1.53,4.6.89,1.69,2.66,4.92,3.23,7.34.56,2.42.16,7.91,10.97,12.42,1.53.56,2.5.4,1.82-.62-.85-.52-3.16-5.68-3.72-8.94-.56-3.27-3.63-4.44-4.72-5.57-1.09-1.13-2.18-5.57-3.03-7.83-.85-2.26-2.87-1.51-2.87-1.51Z"/>
      <path class="cls-12" d="m99.21,153.46c-2.13.98-7.29,4.53-8.9,5.1-1.6.56-4.55,1.04-6.33,2.23,0,0,2.14-.82,2.98,1.44.85,2.26,1.94,6.7,3.03,7.83,1.09,1.13,4.15,2.3,4.72,5.57.56,3.27,2.9,8.47,3.75,9-.65-.97-1.37-7.42-1.69-8.95-.32-1.53-.16-4.68-.16-7.18s-.97-4.03,2.18-5.32c1.21-.5,3.55-1.44,6.17-2.48,0,0-.08.47.17.75s.89.08,1.57.04c.69-.04.81-.48.89-1.57s-.56-5.04-1.77-6.62c-1.21-1.57-4.52-2.54-5.16-2.5-.65.04-.81.73-1.33,1.61-.35.6-.23.92-.11,1.07.06.07.02,0,.02,0Zm11.75,35.03l.08-.97s1.21.97,1.21,2.1-.16,2.42-.16,2.42c0,0-.15.25-.48.48,0,0,0,1.13.16,4.36.16,3.23.81,8.23.81,8.23,0,0,.32,1.13,1.45,2.26,1.13,1.13,2.1,2.58,7.26,3.23,5.16.65,11.29-4.03,12.75-3.87,1.45.16.32,2.1-2.9,5.81-3.23,3.71-12.75,5.81-15.81,5.32-3.07-.48-6.94-.16-9.04-.65-2.1-.48-1.94-2.74-1.77-6.13.16-3.39-1.13-6.62-2.26-10.17-1.13-3.55-.97-6.29-.97-6.29,0,0-1.94-1.29-2.1-3.07s.79-2.82,1.71-3.21c.16.61.37,1.11.47,1.46,1.16.22,3.12.36,5.56-.03,4.03-.65,4.03-1.29,4.03-1.29Z"/>
      <path class="cls-15" d="m111.12,188.33s-.16.81-4.2,1.45c-2.37.38-4.35.29-5.54.12-.54-1.87-2.57-9.18-2.29-12.54.32-3.87,1.05-6.9,1.05-6.9-1.57-1.16-3.57-2.55-3.57-2.55-.11-2.17-.7-3.56,2.19-4.75,1.21-.5,3.55-1.44,6.17-2.48,0,0-.08.47.17.75s.89.08,1.57.04c.69-.04.81-.48.89-1.57,0-.06,0-.21,0-.28,0,0,3.39,2.5,3.95,3.79.56,1.29-.08,5-.08,5.97s.08,3.55.24,6.37-.56,12.59-.56,12.59Zm-3.54-28.64c0-1.31-.64-4.93-1.78-6.41-.71-.93-2.08-1.7-3.28-2.13,1.95-1.57,4.05-3.43,5.21-4.2,1.94-1.29,4.11-3.95,7.74-4.84,1.13-.28,2.21-.58,3.28-.75.39-.16,2.69-1.16,4.46-2.56,1.94-1.53,6.21-2.1,7.74-.32,1.53,1.77,2.5,2.82,2.82,4.68.32,1.86.08,3.07-.73,4.03-.81.97-2.58,1.86-3.87,2.66-1.29.81-2.18.4-3.39,1.05s-6.05,3.95-9.6,5.32c-1.72.66-5.21,2.11-8.63,3.47Z"/>
      <path class="cls-25" d="m116.59,107.75c-.17-.22-.41-.33-.77-.22-.69.2-.65.69-.4,1.61.24.93,1.17,3.15,1.61,4.07.44.93.52,1.45.16,1.61-.36.16-1.01-.4-1.49-.73-.48-.32-1.9-.82-2.22-1.01-.1-.06-.65-.42-.81.3s1.01,1.49,1.82,1.94c.81.44,1.77,1.05,1.77,1.05,0,0,.28.44.61.6.21.11.99,1.47,1.74,2.53l-.08.2s-.28.89-.56.61c-.28-.28-.77-.85-.93.04-.16.89-.12,1.49.65,1.29.77-.2,1.49.12,1.01.56-.48.44-1.61.93-.65,1.73.97.81,1.13-1.17,1.9-.85.46.19.65.38.73.69l.16.32s.89.48,1.69.04l.12-.2c.56-.48,3.19-2.5,3.19-2.5.97-.61.73-2.18.65-3.03-.08-.85-.4-2.94-.32-3.75.08-.81.16-1.77-.44-2.26-.61-.48-.9-1.66-.9-1.66l-1.32.65c-.14-.25-.26-.45-.36-.56-.4-.44-1.9-2.82-2.3-3.51-.4-.69-.56-.93-1.09-.93s-.77.52-.48,1.13c.28.61.97,2.34,1.49,2.99.52.65,1.29,1.98,1.13,2.3-.16.32-.52.12-.81-.08-.28-.2-1.77-3.23-2.38-4.28-.61-1.05-.93-1.49-1.49-1.41-.51.07-.62.6-.64.71h.04Z"/>
      <path class="cls-25" d="m95.73,81.94c.08.88.18,1.86.27,2.7l.17.08s2.86.85,4.56,2.02c1.69,1.17,2.7,1.98,3.83,1.9h.13c-.58.73-1.4,2.29-1.99,3.15-.81,1.17-5.57,6.49-5.65,7.3-.08.81-.77.52-1.69.36-.93-.16-.81.97-1.53,1.13-.73.16-.97-.81-1.86-1.01s-.56.81-1.45.89c-.89.08-.4-1.01-1.09-1.09-.69-.08-1.01.97-1.94.85-.93-.12-.12-1.57-1.05-1.73-.93-.16-1.25.81-2.06.56-.81-.24.16-1.05-.2-1.53-.36-.48-.48.2-1.49.16-1.01-.04.16-.97.16-1.49s-.93.12-1.65-.24.6-.81.6-.81c.24,0,.12-.24-.69-.85-.81-.6-.97-2.66-1.29-3.63-.32-.97-.69-1.69-1.05-2.22-.33-.48,0-.89.07-.95.71-.04,1.31-.05,1.47.02l.43.13c1.18-.78,3.38-2.79,4.39-2.83-.47-.9-1.23-1.41-1.23-1.41-.82.04-1.62-.04-2.1-.04-1.45,0-1.53-.48-2.42-.97-.89-.48-.6-1.61-.56-1.94s-.24-1.09-.36-1.69c-.12-.61-.04-1.53-.04-2.14s.12-.89.08-1.45c-.04-.56-.12-1.53-.04-2.42s.36-1.65.56-2.3c.2-.65.31-1.09.31-1.09l-.11-.32c-.2-.6-.16-1.17,0-1.73.16-.56.73-1.13,1.65-1.86.78-.61,1.45-1.62,1.64-1.93l-.04-.16c.42-.12,1.01-.12,1.79.24,1.53.69,4.96,1.21,7.13,1.39,0,0,1.18,2.8,1.02,5.31-.13,1.96.09,3.23.98,4.27,0,0-.41,1.54-.25,2.34.16.81.28.85.28.85,0,0,.93-1.45,1.49-1.65,1.39,1.27,2.75,2.98,1.86,3.87-1.05,1.05-.73.89-2.1,1.21,0,0,.31.39,1.1.54l-.04.22Z"/>
      <path class="cls-20" d="m79.42,70.22s0,.48.44.77c.38.24,1.07.25,1.32.2,0,0-.07-.01-.1-.01-.5,0-.9-.42-.9-.95,0-.29.11-.56.32-.73,0,0,.06-.05.09-.07l-.09.07c-.08,0-.16-.01-.24-.01-.6,0-.56.44-.56.44-.07.29-.47.28-.47.28h.19Z"/>
      <path class="cls-20" d="m88.27,72.66c-.16-.19-.32-.36-.48-.52-.16.37-.53.61-.96.61-.58,0-1.05-.47-1.05-1.05,0-.27.09-.52.28-.71l-.15.07c-.19-.04-.39-.06-.59-.06-.31.02-.1.48-.19.67-.23.11-.29.32-.18.47v-.07s.24.3.69.56c.44.26,1.53.6,2.56.08l.06-.06Z"/>
      <path class="cls-24" d="m81.63,69.84c.1.37.17.65.18.89-.16.17-.39.29-.64.29-.5,0-.9-.42-.9-.95,0-.29.11-.55.31-.73.5.04.95.25,1.05.49Z"/>
      <path class="cls-24" d="m86.06,71.04c.64.14,1.23.49,1.81,1.05-.16.37-.53.62-.95.62-.58,0-1.05-.47-1.05-1.05,0-.23.06-.44.2-.62.03-.03.08-.09.08-.09l-.08.09Z"/>
      <path class="cls-17" d="m60.69,96.48s-3.79,5.32-6.29,8.95c-2.5,3.63-3.87,7.18-4.03,9.2-.16,2.02.81,3.95,1.21,5.49s7.5,24.93,8.23,28.07c.73,3.15.56,10.25,2.34,10.73,0,0-.4-2.98-.16-4.92s1.77-1.86,1.69-2.58c-.08-.73.89-3.95.89-4.76s.32-5.49.32-5.49c0,0-.73-.97-.97-1.77-.24-.81-.65-1.29-1.69-2.1-1.05-.81-.81-2.18-.81-2.18,0,0,.89-.48,1.37-.73.48-.24,1.61.4,1.61.4l.08-2.02-1.05-.4s0-.65-.24-1.45c-.24-.81-1.29-2.02-1.29-2.02l2.34.89s.16.48.08-.65c-.08-1.13.81-3.47.81-3.47,0,0-1.37-.65-2.02-.89-.65-.24-.24-.89-.65-1.69-.4-.81-2.18-1.69-2.18-1.69l2.58.32s.81-.16,1.61-.08c.81.08,1.21-.56,1.21-.56-1.09-3.96-.08-7.03,3.01-9.1-.23-.08-.36-.19-.53-.25.27-.16.54-.32.83-.47,5.92-2.67,11.5-4.53,16.74-5.54-2.66-.54-4.32-1.45-4.79-2.24-.65-1.09-3.35-7.5-3.59-8.43-.24-.93-1.49-7.62-1.49-7.62,0,0-2.14,0-4.76-.16s-3.79.97-5.53,3.19c-1.73,2.22-5.84,5.92-5.84,5.92.04,1.17.47.93.95.09Zm50.33,26.42c.09.52.19,1.04.3,1.53.81,3.63,1.26,7.63,1.26,7.63-2.68-.51-5.47-1.05-7.65-1.31-5.32,5.22-12.58,9.66-21.77,13.32-4.7,1.52-8.66.99-11.86-1.98,0,0-3.15,6.05-2.34,9.04.81,2.98,2.9,2.34,3.63,3.23.73.89,2.18,2.26,5,3.47,2.82,1.21,6.94,2.42,6.94,2.42,1.78-.89,4.41-1.37,5.81-1.86,1.59-.56,6.66-4.03,8.8-5.05-.12-.11-.21-.43.2-1.12.52-.89.69-1.57,1.33-1.61.28-.02.93.27,1.83.6,1.95-1.57,4.1-3.65,5.27-4.43,1.94-1.29,4.11-3.95,7.74-4.84,1.07-.26,2.29-.48,3.32-.65,0,0,2.49-1.12,4.42-2.66,1.94-1.53,6.21-2.1,7.74-.32l.16.16s-.16-.4-.73-1.05c-.41-.46-4.08-1.83-8.63-3.15,0,0-.97-2.34-2.5-3.95-1.53-1.61-2.5-2.74-2.5-2.74l-2.58-.16s1.61-1.05.81-1.61c-.81-.56-1.94-2.18-1.94-2.18l1.69.4s.4-1.69.56-2.34c.16-.65-.24-.81.4-2.5.51-1.35,1.49-1.44,1.85-1.4-.36-.55-.64-.99-.76-1.05-.32-.16-.6-.61-.6-.61,0,0-.87-.43-1.64-.86l-.17.08c-.81,2.74-1.92,5.07-3.41,7.54Zm6.79-25.45c-.93-.52-2.66-4.4-3.39-5.65-.73-1.25-4.92-2.66-5.77-2.94-.85-.28-.85.08-.93.24s-6.17,13.31-7.18,14.92c-.25.4-.79.75-1.53,1.05,2.89.3,5.65.92,8.28,1.87.17-1.02.4-2.08.43-3.12,0,0,.12-.04.33-.12,0,0,.45,2.27.72,3.82.88.37,1.74.77,2.59,1.21l7.05-2.73s-.73-1.97-1.04-2.82c-.3-.85.38-1.74-.12-2.37s-.65-2.16-.65-2.16c1.06-.81,1.2-1.2,1.2-1.2Zm12.45,51.83c-.39.23-.77.45-1.11.66,0,0-.61.91-.61,3.49,0,1.12.02,2.13-.32,2.98l7.18,4.52.13-.1c-.63.06-1.38-.82-1.58-2.88-.24-2.58-.81-3.87-.81-3.87l-2.26.56-1.05-.65-.97-.16,2.34-1.61.56.08-1.21-2.98-.3-.04Z"/>
      <path class="cls-10" d="m89.85,91.35c-.08.57-.16,1.02-.22,1.26-.28.97-.48,2.14-.48,2.14"/>
      <line class="cls-10" x1="90.09" y1="89.63" x2="89.98" y2="90.38"/>
      <path class="cls-10" d="m92.41,89.9s-.44,3.03,1.05,3.59"/>
      <path class="cls-10" d="m99.78,90.28c.72.75,1.86,1.24,1.86,1.24"/>
      <path class="cls-4" d="m89.5,96.03s.73.32.97-.56c.24-.89.56-.97,1.61-.97s7.5-1.29,10.73-3.23"/>
      <path class="cls-4" d="m83.05,91.27s2.1,1.86,3.23,2.1.32,1.53.73,2.1"/>
      <path class="cls-4" d="m59.7,96.32s4.23-3.75,5.96-5.97c1.73-2.22,2.9-3.35,5.53-3.19,2.62.16,4.76.16,4.76.16"/>
      <path class="cls-4" d="m75.87,87.32s1.33,6.7,1.57,7.62c.24.93,2.94,7.34,3.59,8.43.48.81,2.24,1.76,5.06,2.29"/>
      <path class="cls-4" d="m75.83,87.6s4.11-.44,4.56-.24l.44.2"/>
      <path class="cls-4" d="m81.88,94.99s-1.33.44-.61.81,1.65-.28,1.65.24-1.17,1.45-.16,1.49c1.01.04,1.13-.65,1.49-.16s-.61,1.29.2,1.53c.81.24,1.13-.73,2.06-.56.93.16.12,1.61,1.05,1.73s1.25-.93,1.94-.85c.69.08.2,1.17,1.09,1.09.89-.08.56-1.09,1.45-.89.89.2,1.13,1.17,1.86,1.01.73-.16.61-1.29,1.53-1.13.93.16,1.61.44,1.69-.36s4.84-6.13,5.65-7.3c.81-1.17,2.06-3.67,2.5-3.55.44.12,1.01.36,1.05.56s1.41.52,1.41.52"/>
      <path class="cls-4" d="m78.97,87.36s-.48.4-.12.93c.36.52.73,1.25,1.05,2.22.32.97.48,3.03,1.29,3.63.81.6.89.97.65.97"/>
      <path class="cls-4" d="m119.15,113.66s.04-.4-.08-.65c-.12-.24-1.82-3.83-2.14-4.52-.32-.69-.48-1.25-1.17-1.05-.69.2-.65.69-.4,1.61.24.93,1.17,3.15,1.61,4.07s.52,1.45.16,1.61c-.36.16-1.01-.4-1.49-.73-.48-.32-1.9-.82-2.22-1.01-.1-.06-.65-.42-.81.3-.16.73,1.01,1.49,1.82,1.94s1.77,1.05,1.77,1.05c0,0,.28.44.61.6.32.16,1.94,3.21,2.78,3.69.85.48,1.13.36,1.73.69.6.32,1.45.69,2.06.4"/>
      <path class="cls-4" d="m116.49,107.69s.08-.65.65-.73.89.36,1.49,1.41c.6,1.05,2.1,4.07,2.38,4.28.28.2.65.4.81.08.16-.32-.6-1.65-1.13-2.3s-1.21-2.38-1.49-2.98c-.28-.6-.04-1.13.48-1.13s.69.24,1.09.93c.4.69,1.9,3.07,2.3,3.51s1.17,2.34,1.61,2.54c.44.2.65.56.65.56"/>
      <path class="cls-4" d="m118.58,108.82s-.2.08-.44.2"/>
      <path class="cls-10" d="m118.83,110.8s.12-.36.48-.28c.36.08.04.69-.32.61"/>
      <path class="cls-10" d="m121.33,110.03s.28-.32.56-.28"/>
      <path class="cls-10" d="m120.6,108.5s.16-.12.32-.16"/>
      <path class="cls-10" d="m116.73,110.11s.2-.16.36-.2"/>
      <path class="cls-10" d="m117.5,111.36s-.16.73-.4.6"/>
      <path class="cls-10" d="m116.97,112.01s.52.36.73.2"/>
      <path class="cls-10" d="m120.56,113.26s.73.4.69.69c-.04.28.08.77.08.77"/>
      <path class="cls-10" d="m119.27,114.31s.04.36.32.52"/>
      <path class="cls-10" d="m122.98,112.17s.44.24.48.73c.04.48.08,1.29.08,1.29"/>
      <path class="cls-4" d="m124.63,110.72s.4,1.13,1.01,1.61c.6.48.52,1.45.44,2.26-.08.81.24,2.9.32,3.75.08.85.32,2.42-.65,3.03"/>
      <path class="cls-4" d="m59.99,97.43s-.99-2.12,1.19-1.07c1.72.83,7.34,4.11,7.99,5.61.65,1.49,1.37,6.66,1.37,6.66"/>
      <path class="cls-10" d="m115.39,108.11l.29.61c.1.21.87-.03.77-.32l-.21-.63c-.32-.08-.6.03-.85.33Z"/>
      <path class="cls-10" d="m116.78,107.56l.29.61c.1.21.87-.03.77-.32l-.21-.63c-.32-.08-.6.03-.85.33Z"/>
      <path class="cls-10" d="m119.26,106.91l.3.61c.1.21.87-.03.77-.32l-.21-.63c-.32-.08-.6.03-.85.33Z"/>
      <path class="cls-10" d="m112.59,113.55l.56.39c.19.13.61-.33.37-.53l-.5-.43c-.28.05-.42.24-.43.57Z"/>
      <path class="cls-4" d="m60.78,96.36s-3.79,5.32-6.29,8.95-3.87,7.18-4.03,9.2c-.16,2.02.81,3.95,1.21,5.49.4,1.53,7.5,24.93,8.23,28.07.73,3.15.56,10.25,2.34,10.73"/>
      <path class="cls-22" d="m85.17,71.67c-.23.11-.28.32-.17.47-.74-.02-.71-.39-.12-.44l.29-.03Z"/>
      <path class="cls-7" d="m85.19,71.67c.09-.18-.13-.64.18-.66,1.16.02,2.13.61,3.13,1.88"/>
      <path class="cls-10" d="m87.83,72.13c-.16.37-.53.62-.96.62-.58,0-1.05-.47-1.05-1.05,0-.27.09-.52.28-.71"/>
      <path class="cls-19" d="m86.37,71.86c0-.24.19-.43.43-.43s.43.19.43.43-.19.43-.43.43-.43-.19-.43-.43Z"/>
      <path class="cls-11" d="m86.37,71.86c0-.24.19-.43.43-.43s.43.19.43.43-.19.43-.43.43-.43-.19-.43-.43Z"/>
      <path class="cls-4" d="m81.23,68.2s.16.97.36,1.69.28,1.13-.08,1.53c-.36.4-.61,1.01-1.17,1.53s-1.09.81-1.21,1.13-.28,1.01.28,1.45c.56.44.85.44.85.44"/>
      <path class="cls-8" d="m81.23,68.2s.16.97.36,1.69.28,1.13-.08,1.53c-.36.4-.61,1.01-1.17,1.53s-1.09.81-1.21,1.13-.28,1.01.28,1.45c.56.44.85.44.85.44"/>
      <path class="cls-10" d="m81.66,76.16c-.06.02-.17,0-.3-.07-.28-.16-.42-.46-.42-.46"/>
      <path class="cls-4" d="m80.71,75.58s.26-.14.5-.02c.24.12.4.3.48.44.04.07.02.13-.04.16"/>
      <path class="cls-8" d="m80.71,75.58s.26-.14.5-.02c.24.12.4.3.48.44.04.07.02.13-.04.16"/>
      <path class="cls-2" d="m82.68,75.1c0-.07,0-.13.03-.2"/>
      <path class="cls-2" d="m81.23,76.27s.83.38,1.23-.2c.18-.26.23-.46.23-.63"/>
      <path class="cls-6" d="m79.46,75.36s.3.18.5-.14c.2-.32.38-.65.93-.36"/>
      <path class="cls-4" d="m79.19,77.38s-.06.24.14.22c.2-.02.4.06.5.22.1.16.04.28.2.28s.71-.06,1.05.12c.34.18,1.13.75,1.59.81.46.06.58.16.58.16"/>
      <path class="cls-8" d="m79.19,77.38s-.06.24.14.22c.2-.02.4.06.5.22.1.16.04.28.2.28s.71-.06,1.05.12c.34.18,1.13.75,1.59.81.46.06.58.16.58.16"/>
      <path class="cls-4" d="m83.23,78.69s.1.56.24.75"/>
      <path class="cls-8" d="m83.23,78.69s.1.56.24.75"/>
      <path class="cls-6" d="m79.22,77.36s-.12-.28.06-.3c.18-.02.52.26.67.24.14-.02.06.28.22.34.16.06.54-.2.83-.08s1.25.79,1.39.91c.14.12.26.54.44.6"/>
      <path class="cls-7" d="m79.48,78.53s-.1.44.12.63c.22.18.91.65,1.33.69s.99-.14,1.17-.14"/>
      <path class="cls-6" d="m80.1,78.9c-.09.18-.03.43.19.75"/>
      <path class="cls-4" d="m82.64,63.28s-.77,1.29-1.69,2.02c-.93.73-1.49,1.29-1.65,1.86-.16.56-.2,1.13,0,1.73.2.61.24.77.24.77"/>
      <path class="cls-1" d="m90.39,81.48c.48-.42.78-.88,1.09-1.34.56-.85,1.73-2.34,1.73-2.34"/>
      <path class="cls-1" d="m84.88,83.08c1.1-.09,2.25-.22,3.13-.43"/>
      <path class="cls-3" d="m79.34,69.29s-.04.36-.24,1.01c-.2.65-.48,1.41-.56,2.3-.08.89,0,1.86.04,2.42.04.56-.08.85-.08,1.45s-.08,1.53.04,2.14.4,1.37.36,1.69c-.04.32-.32,1.45.56,1.94.89.48.97.97,2.42.97.66,0,1.8-.03,3-.13"/>
      <path class="cls-10" d="m80.34,82.68s1.21.2,2.14-.69"/>
      <path class="cls-10" d="m87.12,77.52c.24-.17.99-1.13,1.86-1.13"/>
      <path class="cls-27" d="m83.69,69.76c.15-.17.34-.3.56-.3.75-.02,2.78-.06,3.65.12.87.18,2.42,1.39,2.58,1.49.16.1-.4.12-.75-.12s-2-1.03-2.66-1.11c-.67-.08-1.63.04-2.36.14-.73.1-1.03-.22-1.03-.22Z"/>
      <path class="cls-10" d="m83.69,69.76c.15-.17.34-.3.56-.3.75-.02,2.78-.06,3.65.12.87.18,2.42,1.39,2.58,1.49.16.1-.4.12-.75-.12s-2-1.03-2.66-1.11c-.67-.08-1.63.04-2.36.14-.73.1-1.03-.22-1.03-.22Z"/>
      <path class="cls-4" d="m79.74,69.82s-.04-.44.56-.44,1.13.2,1.25.48"/>
      <path class="cls-4" d="m79.27,70.1s.44-.02.51-.31"/>
      <path class="cls-10" d="m81.76,70.77c-.16.18-.39.28-.64.28-.5,0-.9-.42-.9-.95,0-.34.14-.63.41-.8"/>
      <path class="cls-19" d="m80.75,70.09c0-.25.19-.45.43-.45s.43.2.43.45-.19.45-.43.45-.43-.2-.43-.45Z"/>
      <path class="cls-11" d="m80.75,70.09c0-.25.19-.45.43-.45s.43.2.43.45-.19.45-.43.45-.43-.2-.43-.45Z"/>
      <path class="cls-27" d="m81.37,68.87s-.46-.1-.89-.54c-.42-.44-.65-.75-.93-.77-.28-.02-.34-.02-.34-.02,0,0,.28-.36.89-.2.61.16,1.11.89,1.11.89l.16.65Z"/>
      <path class="cls-10" d="m81.37,68.87s-.46-.1-.89-.54c-.42-.44-.65-.75-.93-.77-.28-.02-.34-.02-.34-.02,0,0,.28-.36.89-.2.61.16,1.11.89,1.11.89l.16.65Z"/>
      <path class="cls-3" d="m92.97,78.45s.16,1.05,1.69.89,2.14-1.21,2.14-1.21"/>
      <path class="cls-3" d="m95.8,81.8c.17,1.89.41,4.25.55,4.72.24.81.56,1.9,1.21,2.22"/>
      <path class="cls-3" d="m96.24,84.58s2.86.85,4.56,2.02c1.69,1.17,2.7,1.98,3.83,1.9"/>
      <path class="cls-3" d="m83.97,83.25s1.13.77,1.49,2.06.61,2.18,1.25,2.66c.65.48.44,1.61.44,1.61"/>
      <path class="cls-10" d="m84.98,84.58s-.08,4.88-.24,5.97c-.16,1.09-.65,1.61-.65,1.61"/>
      <path class="cls-10" d="m83.16,70.79c.05-.17.23-.69.53-1.03"/>
      <line class="cls-10" x1="84.18" y1="70.73" x2="83.61" y2="70.79"/>
      <line class="cls-10" x1="85.33" y1="69.86" x2="84.61" y2="70.57"/>
      <path class="cls-4" d="m82.72,63.28s-1.86,2.02-3.71,2.5c-1.86.48-6.45,4.36-5,7.91,1.22,2.97,3.73,4.42,4.52,4.81"/>
      <path class="cls-4" d="m103.38,73.2s2.02,2.66,1.37,5.89c-.65,3.23-4.03,4.92-5.65,4.92s-3.31-1.69-3.31-1.69"/>
      <path class="cls-4" d="m81.76,63.68s.81-1.05,2.58-.24c1.77.81,6.13,1.37,8.07,1.45,1.94.08,11.21,8.63,11.21,8.63"/>
      <path class="cls-10" d="m91.9,81.46c.57-1.09.99-2.09.99-2.09"/>
      <path class="cls-10" d="m84.22,83.65s1.69.32,3.27.48"/>
      <path class="cls-10" d="m93.17,80.18s-1.53,3.59-2.22,5.24c-.17.42-.32,1.02-.46,1.7"/>
      <path class="cls-3" d="m95.19,81.35c-.63,1.92-1.79,5.68-2.26,6.94-.6,1.61-1.25,3.27-1.41,3.79"/>
      <path class="cls-10" d="m97.73,87.88c.37.33.77.72,1.1,1.1"/>
      <path class="cls-4" d="m79.22,87.81s.44.44,1.61-.32c1.17-.77,3.15-2.74,4.15-2.78"/>
      <path class="cls-3" d="m91.52,64.89s1.13,2.74.97,5.24c-.16,2.5.24,3.87,1.86,5.08,1.61,1.21,3.55,3.55,2.5,4.6-1.05,1.05-.73.89-2.1,1.21,0,0,1.37.56,3.47-.89"/>
      <path class="cls-10" d="m93.49,66.35s1.05,1.37.93,2.74c-.12,1.37-.85,3.03-.12,4.28s3.31,3.15,2.74,5.53"/>
      <path class="cls-10" d="m94.86,67.48s.31.41.49,1c.18.48.33,1.11.28,1.75-.04.5-.12,1.04-.11,1.62,0,.29-.24,1.76,1.13,3.9"/>
      <path class="cls-10" d="m97.12,74.53c.08.41.18.81.3,1.21.09.37.18.77.2,1.22.16,1.44.04,2.45-1.19,3.44"/>
      <path class="cls-10" d="m98.94,76.66c.02.09.04.18.05.28.06.42.06.87-.04,1.38-.26,1.57-1.19,2.29-2.81,2.85"/>
      <path class="cls-10" d="m100.1,76.52c.43.96.67,1.9.17,3.14-.69,1.69-2.42,2.14-4.44,2.26"/>
      <path class="cls-4" d="m94.66,81.07s1.53,1.37,4.68-.12"/>
      <path class="cls-10" d="m95.79,82.04s3.07,1.73,5.53-.61c2.46-2.34,2.5-5.36.89-9.24"/>
      <path class="cls-7" d="m93.45,74.45s-.4,1.49-.24,2.3c.16.81.28.85.28.85,0,0,.93-1.45,1.49-1.65"/>
      <path class="cls-10" d="m93.62,77.36c.16-.04.69-.44,1.05.16.36.6.32.97.93.69"/>
      <path class="cls-10" d="m95.71,78.12s.61-.16.52-1.01"/>
      <path class="cls-10" d="m95.04,61.6c1.44.99,2.67,1.81,3.25,2.01"/>
      <path class="cls-4" d="m81.27,64.65s-.65-.81-.24-2.18c.4-1.37.81-3.07,1.77-4.11.97-1.05,2.74-2.26,5.73-.89,1.78.82,4.38,2.66,6.51,4.12"/>
      <path class="cls-4" d="m94.02,60.86s5.32,1.94,8.39,3.71c3.07,1.77,4.68,7.91.81,8.55"/>
      <path class="cls-10" d="m89.63,63.46c1.04.25,2.09.55,3.12.97"/>
      <path class="cls-10" d="m97.75,67.25c2.74,1.7,6.36,4.26,5.95,5.63"/>
      <path class="cls-10" d="m96.64,66.58c.26.15.53.32.82.5"/>
      <path class="cls-10" d="m80.95,62.8s.08-1.29,3.31-.48c1.13.28,2.32.5,3.55.75"/>
      <path class="cls-4" d="m88.13,62.07s.54-6.01,11.05-6.94c.79-.07,1.55-.28,2.56-.44,1.88-.36,9.18.6,12.85-5.45"/>
      <path class="cls-4" d="m68.71,112.07c3.02,1.16,9.5,3.97,9.5,3.97"/>
      <path class="cls-4" d="m58.12,108.94s7.58,1.94,9.92,2.66c.26.08.39.14.77.28"/>
      <path class="cls-4" d="m65.82,120.24s2.58.61,5.97.69c3.39.08,5.04,1.09,5.04,1.09"/>
      <path class="cls-10" d="m86.63,128.97s.2.56-.08.85"/>
      <path class="cls-10" d="m71.35,103.78s1.77-9.2,2.34-12.42"/>
      <line class="cls-10" x1="69.98" y1="99.75" x2="73.04" y2="91.68"/>
      <line class="cls-10" x1="107.57" y1="103.05" x2="107.65" y2="93.86"/>
      <path class="cls-10" d="m84.1,98.62s1.05,2.1,1.05,2.82"/>
      <path class="cls-10" d="m78.45,91.11s1.86,5.49,2.74,7.34c.89,1.86,3.39,5.08,7.1,5.32s7.91,0,9.44-2.02,6.7-11.29,6.7-11.29"/>
      <path class="cls-4" d="m68.77,111.93c-3.08,2.07-4.08,5.08-2.98,9.04,0,0-.4.65-1.21.56s-1.61.08-1.61.08l-2.58-.32s1.77.89,2.18,1.69,0,1.45.65,1.69c.65.24,2.02.89,2.02.89,0,0-.89,2.34-.81,3.47.08,1.13-.08.65-.08.65l-2.34-.89s1.05,1.21,1.29,2.02c.24.81.24,1.45.24,1.45l1.05.4-.08,2.02s-1.13-.65-1.61-.4c-.48.24-1.37.73-1.37.73,0,0-.24,1.37.81,2.18,1.05.81,1.45,1.29,1.69,2.1s.97,1.77.97,1.77c0,0-.32,4.68-.32,5.49s-.97,4.03-.89,4.76c.08.73-1.45.65-1.69,2.58-.24,1.94.24,5.08.24,5.08,0,0,2.02-5.08,2.82-5.81.81-.73-1.21-2.74-1.21-2.74"/>
      <path class="cls-4" d="m70.14,120.72s1.45,2.42.65,4.6-3.55,5.65-3.23,7.34c.32,1.69.24,2.18.24,2.18l-1.94-.16s1.37.4,1.86,1.53c.48,1.13,2.1,3.31,2.1,3.31,0,0-1.69.48-1.94,2.34-.24,1.86.56,4.28-.32,4.76-.89.48-1.53.73-1.53.73l-1.69.56"/>
      <path class="cls-4" d="m104.58,131.04c3.17.37,7.72,1.01,11.46,1.94,6.45,1.61,13.8,3.95,14.36,4.6.56.65.73,1.05.73,1.05"/>
      <path class="cls-4" d="m104.95,160.67c-2.62,1.05-4.95,1.99-6.17,2.48-3.15,1.29-2.18,2.82-2.18,5.32s-.16,5.65.16,7.18c.32,1.53,1.05,7.99,1.69,8.95.65.97-.4,1.05-1.94.48"/>
      <path class="cls-4" d="m118.71,141.37s2.58-1.05,4.52-2.58c1.94-1.53,6.21-2.1,7.74-.32,1.53,1.77,2.5,2.82,2.82,4.68.32,1.86.08,3.07-.73,4.03-.81.97-2.58,1.86-3.87,2.66-1.29.81-2.18.4-3.39,1.05s-6.05,3.95-9.6,5.32c-1.72.66-5.13,2.01-8.54,3.37"/>
      <path class="cls-4" d="m100.06,152.98c-.32.21-.62.38-.88.5-2.1.97-7.26,4.52-8.87,5.08-1.61.56-4.6,1.05-6.37,2.26-1.77,1.21-2.42,2.9-1.53,4.6.89,1.69,2.66,4.92,3.23,7.34.56,2.42.16,7.91,10.97,12.42"/>
      <path class="cls-4" d="m123.14,140.89s-4.03.32-7.66,1.21c-3.63.89-5.81,3.55-7.74,4.84-1.17.78-3.27,2.64-5.21,4.2"/>
      <path class="cls-10" d="m130.97,143.71s.48,1.61.08,2.82c-.4,1.21-1.77,1.69-2.58,2.02-.81.32-2.66-.08-3.31,0"/>
      <path class="cls-10" d="m125.24,149.93s-.65.56-1.94.48c-1.29-.08-2.18,1.13-4.52,2.1-2.34.97-6.45,1.69-6.45,1.69"/>
      <path class="cls-10" d="m104.43,152.1s7.39-1.6,12.66-3.27"/>
      <path class="cls-4" d="m99.3,153.56s-.52-.28,0-1.17c.52-.89.69-1.57,1.33-1.61.65-.04,3.95.93,5.16,2.5,1.21,1.57,1.86,5.53,1.77,6.62s-.2,1.53-.89,1.57c-.69.04-1.33.24-1.57-.04s-.16-.73-.16-.73"/>
      <path class="cls-4" d="m100.39,152.71s4.03,2.38,4.52,4.4c.48,2.02.4,2.78.4,2.78"/>
      <path class="cls-4" d="m84.02,160.9s2.1-.93,2.94,1.33c.85,2.26,1.94,6.7,3.03,7.83,1.09,1.13,4.15,2.3,4.72,5.57.56,3.27,2.9,8.47,3.75,9"/>
      <path class="cls-4" d="m116.61,98.81s.25,1.25.74,1.88-.19,1.52.12,2.37c.3.85,1.04,2.82,1.04,2.82"/>
      <path class="cls-4" d="m108.22,104.06s.24,1.89.52,3.44"/>
      <path class="cls-4" d="m125.8,121.41s-2.66,1.98-3.23,2.46"/>
      <path class="cls-4" d="m118.46,119.63s-.28.89-.56.6c-.28-.28-.77-.85-.93.04-.16.89-.12,1.49.65,1.29.77-.2,1.49.12,1.01.56-.48.44-1.61.93-.65,1.73.97.81,1.13-1.17,1.9-.85.77.32.81.65.77,1.53-.04.89.69,1.25,1.49.65.81-.6-.16-1.61.89-1.57,1.05.04.24,1.25,1.33,1.29s1.45-.4,1.29-1.33c-.16-.93,1.01-.28,1.69.04.69.32,1.17-.65.61-1.25-.56-.6-1.17-.65-.73-1.25.44-.61,1.01.4,1.21-.48.2-.89.2-2.06-.52-1.86-.73.2-1.09.12-1.33-.24"/>
      <path class="cls-4" d="m114.29,125.74s4.56-.28,6.24-.81"/>
      <path class="cls-4" d="m120.76,124.03s.89.48,1.69.04"/>
      <path class="cls-10" d="m123.75,124.03s1.69.08,2.1-.69"/>
      <path class="cls-10" d="m126.37,122.98s.52-1.21.65-1.61"/>
      <path class="cls-10" d="m126.61,119.47s.56,1.25.44,1.94"/>
      <path class="cls-4" d="m117.66,118.06s-1.29-.4-1.94,1.29c-.65,1.69-.24,1.86-.4,2.5s-.56,2.34-.56,2.34l-1.69-.4s1.13,1.61,1.94,2.18c.81.56-.81,1.61-.81,1.61l2.58.16s.97,1.13,2.5,2.74c1.53,1.61,2.5,3.95,2.5,3.95"/>
      <path class="cls-4" d="m125.56,123.71s1.69,4.28,2.58,5.16c.89.89-.65,1.37-.65,1.37l-.08,1.21-2.5.81s2.34.65,2.5,1.21c.16.56.24-.56.89-.48.65.08,1.37-.08,1.37-.08,0,0,3.07,4.44,3.23,4.76.16.32-1.61,1.05-1.61,1.05"/>
      <path class="cls-4" d="m132.26,139.84l1.13.16s2.66,5.97,3.15,9.68.16,10.16-.48,10.81c-.65.65-1.77-.08-2.02-2.66-.24-2.58-.81-3.87-.81-3.87l-2.26.56-1.05-.65-.97-.16,2.34-1.61.56.08-1.21-2.98"/>
      <line class="cls-4" x1="128.31" y1="156.3" x2="135.49" y2="160.82"/>
      <path class="cls-10" d="m117.5,117.74c-1.69.04-2.74.97-3.95,2.26s-1.9,5.65-1.9,5.65"/>
      <path class="cls-10" d="m113.78,117.34c.75-.25,1.76-.39,3.07-.17"/>
      <path class="cls-4" d="m111.02,123.26c.08.45.17.9.26,1.33.81,3.63,1.29,7.58,1.29,7.58"/>
      <path class="cls-10" d="m99.83,162.43s.97-.65.89-3.39c-.08-2.74-.32-6.21-.32-6.21"/>
      <path class="cls-10" d="m93.45,169.69s-1.45-.97.56-5,3.95-10.73,3.95-10.73"/>
      <path class="cls-10" d="m96.44,162.27s1.45-3.95,1.53-5.97"/>
      <path class="cls-4" d="m107.57,159.61s3.39,2.5,3.95,3.79c.56,1.29-.08,5-.08,5.97s.08,3.55.24,6.37-.73,12.75-.73,12.75"/>
      <path class="cls-4" d="m96.44,167.75s4.28,3.07,5.16,3.79"/>
      <path class="cls-4" d="m100.07,170.42s-.65,3.07-.97,6.94c-.28,3.36,1.75,10.68,2.29,12.55"/>
      <path class="cls-10" d="m110.4,168.32c-.1.52-.25,1.02-.49,1.37-.81,1.21-.97,1.45-1.86,1.05-.89-.4-1.45-.81-1.45-.81"/>
      <path class="cls-10" d="m109.67,164.87c1.19,0,.89.79.89.79,0,0,.03.44,0,1.05"/>
      <path class="cls-10" d="m108.94,174.29s.56.56,1.05-.4c.48-.97,1.37-3.79,1.37-3.79"/>
      <path class="cls-4" d="m100.15,189.62s2.74.81,6.78.16c4.03-.65,4.2-1.45,4.2-1.45"/>
      <path class="cls-4" d="m111.12,187.52s1.13.97,1.13,2.1-.16,2.42-.16,2.42c0,0-.97.81-1.77,1.13"/>
      <path class="cls-4" d="m100.9,188.35c-.93.38-1.88,1.43-1.71,3.21s2.1,3.07,2.1,3.07c0,0-.16,2.74.97,6.29,1.13,3.55,2.42,6.78,2.26,10.17-.16,3.39-.32,5.65,1.77,6.13,2.1.48,5.97.16,9.04.65,3.07.48,12.59-1.61,15.81-5.32,3.23-3.71,4.36-5.65,2.9-5.81-1.45-.16-7.58,4.52-12.75,3.87-5.16-.65-6.13-2.1-7.26-3.23-1.13-1.13-1.45-2.26-1.45-2.26,0,0-.65-5-.81-8.23-.16-3.23-.16-4.36-.16-4.36"/>
      <path class="cls-10" d="m109.67,214.79s2.42-5.49,6.78-5.49"/>
      <path class="cls-10" d="m102.89,193.97s5.16.65,7.26-.65"/>
      <path class="cls-10" d="m110.32,197.85s-2.42,12.1-3.07,13.39"/>
      <polyline class="cls-7" points="137.34 104.71 138.19 103.21 136.37 98.9"/>
      <path class="cls-7" d="m111.46,108.61c-11.37-5.92-25.5-5.07-42.38,2.54-.27.15-.54.3-.8.45"/>
      <line class="cls-7" x1="136.37" y1="98.9" x2="111.5" y2="108.56"/>
      <path class="cls-7" d="m88.04,119.82c.26-1.69,1.38-3.21,3.08-3.93,2.62-1.11,5.65.11,6.76,2.73,1.11,2.62-.11,5.65-2.73,6.76-1.13.48-2.34.53-3.43.21"/>
      <path class="cls-7" d="m114.62,115.42l-.23.11c-3.64,12.29-14.06,21.86-31.27,28.72-5.76,1.87-10.22.42-13.81-4.5"/>
      <line class="cls-7" x1="117.46" y1="114.09" x2="116.39" y2="114.59"/>
      <line class="cls-7" x1="121.79" y1="112.06" x2="120.96" y2="112.45"/>
      <line class="cls-7" x1="137.4" y1="104.74" x2="123.54" y2="111.23"/>
      <path class="cls-7" d="m76.72,136.68c.32-.14.7.01.83.34.14.32-.01.7-.34.83-.32.14-.7-.01-.83-.34-.14-.32.01-.7.34-.83Z"/>
      <line class="cls-4" x1="113.94" y1="114.92" x2="114.16" y2="115.45"/>
      <line class="cls-4" x1="111.3" y1="108.7" x2="113.03" y2="112.78"/>
      <path class="cls-4" d="m71.27,142.26s-3.15,6.05-2.34,9.04c.81,2.99,2.9,2.34,3.63,3.23.73.89,2.18,2.26,5,3.47,2.82,1.21,6.94,2.42,6.94,2.42"/>
      <path class="cls-4" d="m112.17,157.99s.48-1.21,4.2.08c3.71,1.29,5.97,2.1,8.87.89s3.39-3.07,3.39-5.65.73-3.39.73-3.39"/>
      <path class="cls-10" d="m94.83,138.47s8.03,9.14,8.9,10.7"/>
      <path class="cls-10" d="m91.94,140.89s4.44,11.71,4.71,13.42"/>
      <path class="cls-10" d="m89.04,141.86s1.62,14.18,1.59,15.97"/>
      <path class="cls-10" d="m103.14,132.5s17.07,4.35,21.24,5.56"/>
      <path class="cls-10" d="m101.01,134.11s16.77,6.06,18.34,6.99"/>
      <path class="cls-10" d="m98.89,135.73s12.32,6.42,13.69,7.62"/>
      <path class="cls-10" d="m96.76,137.34s9.82,7.86,10.99,9.35"/>
      <path class="cls-10" d="m87.11,142.99s-2.62,10.43-.69,16.73"/>
      <path class="cls-10" d="m82.27,144.35c-1.12,4.76-2.32,12.2.51,15.53"/>
      <path class="cls-10" d="m77.62,144.98c-1.35,5.81-1.89,10.93.38,13.34"/>
      <path class="cls-10" d="m73.4,143.56c-1.95,7.16-2.3,9.03-.84,10.96"/>
      <path class="cls-10" d="m78.41,78.17s-1.94-.89-2.54-5.53c-.61-4.64,4.03-5.89,6.13-8.35"/>
      <path class="cls-10" d="m78.66,78.23s-1.79-1.15-1.75-5.83c.02-1.98.89-3.23,2.06-4.18"/>
      <path class="cls-10" d="m87.24,142.5s10.65,3.71,16.3,3.55"/>
      <path class="cls-10" d="m94.18,143.96s7.91-.65,12.1-3.39c4.19-2.74,4.68-5.97,10.49-5.81"/>
      <path class="cls-10" d="m57.15,105.88s7.18,3.79,9.44,5.41"/>
      <polyline class="cls-7" points="70.89 124.62 72.92 129.38 72.68 128.82 76.39 137.55"/>
      <path class="cls-7" d="m71.02,122.84c.11.09.27.17.47.19.47.03.62.47.83.96l1.97,4.64-.12-.28,1.97,4.64c.21.49.42.91.11,1.27-.36.43-.11.94-.11.94l.66,1.55"/>
      <path class="cls-4" d="m98.99,105c.8-.3,1.38-.67,1.65-1.1,1.01-1.61,7.1-14.76,7.18-14.92s.08-.52.93-.24c.85.28,5.04,1.69,5.77,2.94.73,1.25,2.46,5.12,3.39,5.65l.16.16s-1.45,1.29-4.28,3.23c-2.82,1.94-5.97,2.98-5.97,2.98-.03,1.04-.18,2.19-.35,3.22"/>
      <path class="cls-10" d="m85.27,70.97s.52-.87,1.53-.73c.4.06,1.25,1.27,1.9,2.56"/>
      <path class="cls-10" d="m79.66,69.45s.06-.42.52-.54c.46-.12.79-.18,1.19.14"/>
      <line class="cls-4" x1="166.78" y1="160.66" x2="166.73" y2="160.64"/>
      <path class="cls-26" d="m88.16,61.9s.17-.96,1.54-1.82l1.37-.86s-.25.73-.99,1.67-1.92,1.02-1.92,1.02Z"/>
      <path class="cls-4" d="m88.16,61.9s.17-.96,1.54-1.82l1.37-.86s-.25.73-.99,1.67-1.92,1.02-1.92,1.02Z"/>
      <path class="cls-26" d="m88.73,60.64s.11-.9,1.32-1.77l1.21-.88s-.19.69-.81,1.59-1.71,1.05-1.71,1.05Z"/>
      <path class="cls-4" d="m88.73,60.64s.11-.9,1.32-1.77l1.21-.88s-.19.69-.81,1.59-1.71,1.05-1.71,1.05Z"/>
      <path class="cls-26" d="m88.95,59.35s.52-.64,1.89-.72l1.37-.08s-.49.44-1.41.83c-.93.4-1.85-.03-1.85-.03Z"/>
      <path class="cls-4" d="m88.95,59.35s.52-.64,1.89-.72l1.37-.08s-.49.44-1.41.83c-.93.4-1.85-.03-1.85-.03Z"/>
      <path class="cls-26" d="m89.76,58.31s.53-.53,1.78-.49l1.25.05s-.48.35-1.36.63c-.88.28-1.67-.19-1.67-.19Z"/>
      <path class="cls-4" d="m89.76,58.31s.53-.53,1.78-.49l1.25.05s-.48.35-1.36.63c-.88.28-1.67-.19-1.67-.19Z"/>
      <path class="cls-26" d="m91.11,57.55s.52-.43,1.64-.28l1.11.15s-.46.27-1.27.44-1.48-.32-1.48-.32Z"/>
      <path class="cls-4" d="m91.11,57.55s.52-.43,1.64-.28l1.11.15s-.46.27-1.27.44-1.48-.32-1.48-.32Z"/>
      <path class="cls-26" d="m92.1,56.69s.5-.33,1.48-.1l.97.24s-.43.2-1.17.28c-.73.08-1.28-.42-1.28-.42Z"/>
      <path class="cls-4" d="m92.1,56.69s.5-.33,1.48-.1l.97.24s-.43.2-1.17.28c-.73.08-1.28-.42-1.28-.42Z"/>
      <path class="cls-26" d="m93.17,55.94s.48-.24,1.3.08l.82.31s-.4.13-1.05.11c-.65-.01-1.07-.5-1.07-.5Z"/>
      <path class="cls-4" d="m93.17,55.94s.48-.24,1.3.08l.82.31s-.4.13-1.05.11c-.65-.01-1.07-.5-1.07-.5Z"/>
      <path class="cls-26" d="m94.31,55.32s.43-.15,1.1.21l.67.36s-.36.06-.91-.02c-.55-.08-.86-.55-.86-.55Z"/>
      <path class="cls-4" d="m94.31,55.32s.43-.15,1.1.21l.67.36s-.36.06-.91-.02c-.55-.08-.86-.55-.86-.55Z"/>
      <path class="cls-26" d="m95.5,54.83s.38-.07.89.31l.51.38s-.3.01-.75-.12c-.45-.14-.65-.56-.65-.56Z"/>
      <path class="cls-4" d="m95.5,54.83s.38-.07.89.31l.51.38s-.3.01-.75-.12c-.45-.14-.65-.56-.65-.56Z"/>
      <path class="cls-26" d="m96.74,54.46s.31-.02.68.35l.37.36s-.24-.03-.59-.19c-.34-.16-.46-.52-.46-.52Z"/>
      <path class="cls-4" d="m96.74,54.46s.31-.02.68.35l.37.36s-.24-.03-.59-.19c-.34-.16-.46-.52-.46-.52Z"/>
      <path class="cls-26" d="m98,54.24s.24.03.46.36l.23.33s-.18-.05-.42-.23c-.24-.17-.27-.46-.27-.46Z"/>
      <path class="cls-4" d="m98,54.24s.24.03.46.36l.23.33s-.18-.05-.42-.23c-.24-.17-.27-.46-.27-.46Z"/>
      <path class="cls-26" d="m99.28,54.14s.16.06.26.33l.1.27s-.12-.07-.25-.23c-.14-.16-.11-.37-.11-.37Z"/>
      <path class="cls-4" d="m99.28,54.14s.16.06.26.33l.1.27s-.12-.07-.25-.23c-.14-.16-.11-.37-.11-.37Z"/>
      <path class="cls-26" d="m100.56,54.17s.08.08.07.27v.19s-.06-.07-.1-.21c-.04-.13.03-.25.03-.25Z"/>
      <path class="cls-4" d="m100.56,54.17s.08.08.07.27v.19s-.06-.07-.1-.21c-.04-.13.03-.25.03-.25Z"/>
      <path class="cls-26" d="m101.85,54.26s0,.09-.1.18l-.1.1s.01-.07.06-.16.15-.12.15-.12Z"/>
      <path class="cls-4" d="m101.85,54.26s0,.09-.1.18l-.1.1s.01-.07.06-.16.15-.12.15-.12Z"/>
      <path class="cls-26" d="m103.2,54.31s-.08.08-.26.09h-.19s.07-.05.2-.1c.13-.05.25.01.25.01Z"/>
      <path class="cls-4" d="m103.2,54.31s-.08.08-.26.09h-.19s.07-.05.2-.1c.13-.05.25.01.25.01Z"/>
      <path class="cls-26" d="m104.52,54.39s-.15.08-.42-.01l-.27-.09s.13-.05.34-.05c.21,0,.35.15.35.15Z"/>
      <path class="cls-4" d="m104.52,54.39s-.15.08-.42-.01l-.27-.09s.13-.05.34-.05c.21,0,.35.15.35.15Z"/>
      <path class="cls-26" d="m105.86,54.46s-.23.08-.58-.11l-.35-.19s.19-.04.48,0c.29.04.45.29.45.29Z"/>
      <path class="cls-4" d="m105.86,54.46s-.23.08-.58-.11l-.35-.19s.19-.04.48,0c.29.04.45.29.45.29Z"/>
      <path class="cls-26" d="m107.22,54.49s-.3.08-.74-.19l-.44-.27s.24-.03.61.05c.37.08.56.41.56.41Z"/>
      <path class="cls-4" d="m107.22,54.49s-.3.08-.74-.19l-.44-.27s.24-.03.61.05c.37.08.56.41.56.41Z"/>
      <path class="cls-26" d="m108.59,54.5s-.37.09-.9-.26l-.53-.35s.3-.02.76.09c.45.11.67.53.67.53Z"/>
      <path class="cls-4" d="m108.59,54.5s-.37.09-.9-.26l-.53-.35s.3-.02.76.09c.45.11.67.53.67.53Z"/>
      <path class="cls-26" d="m109.97,54.43s-.44.11-1.07-.32l-.63-.42s.36-.03.9.11.8.63.8.63Z"/>
      <path class="cls-4" d="m109.97,54.43s-.44.11-1.07-.32l-.63-.42s.36-.03.9.11.8.63.8.63Z"/>
      <path class="cls-26" d="m111.41,54.17s-.51.15-1.27-.29l-.76-.45s.41-.06,1.05.06c.64.12.97.67.97.67Z"/>
      <path class="cls-4" d="m111.41,54.17s-.51.15-1.27-.29l-.76-.45s.41-.06,1.05.06c.64.12.97.67.97.67Z"/>
      <path class="cls-26" d="m112.86,53.67s-.56.23-1.47-.18l-.91-.42s.46-.12,1.2-.05c.73.06,1.18.65,1.18.65Z"/>
      <path class="cls-4" d="m112.86,53.67s-.56.23-1.47-.18l-.91-.42s.46-.12,1.2-.05c.73.06,1.18.65,1.18.65Z"/>
      <path class="cls-26" d="m114.25,52.82s-.58.36-1.66.06l-1.08-.3s.49-.21,1.32-.27c.83-.06,1.42.51,1.42.51Z"/>
      <path class="cls-4" d="m114.25,52.82s-.58.36-1.66.06l-1.08-.3s.49-.21,1.32-.27c.83-.06,1.42.51,1.42.51Z"/>
      <path class="cls-26" d="m115.48,51.71s-.57.5-1.81.36l-1.24-.14s.5-.32,1.4-.53c.89-.21,1.65.31,1.65.31Z"/>
      <path class="cls-4" d="m115.48,51.71s-.57.5-1.81.36l-1.24-.14s.5-.32,1.4-.53c.89-.21,1.65.31,1.65.31Z"/>
      <path class="cls-26" d="m116.5,50.43s-.54.63-1.91.68l-1.37.05s.49-.43,1.43-.8c.94-.38,1.84.07,1.84.07Z"/>
      <path class="cls-4" d="m116.5,50.43s-.54.63-1.91.68l-1.37.05s.49-.43,1.43-.8c.94-.38,1.84.07,1.84.07Z"/>
      <path class="cls-26" d="m118.14,48.68s-1.28,1.23-2.76,1.43l-1.48.2s.49-.51,1.47-1.02c.98-.51,2.78-.61,2.78-.61Z"/>
      <path class="cls-4" d="m118.14,48.68s-1.28,1.23-2.76,1.43l-1.48.2s.49-.51,1.47-1.02c.98-.51,2.78-.61,2.78-.61Z"/>
      <path class="cls-26" d="m119.67,47.55s-2.02,1.21-3.6,1.53l-1.59.32s.5-.59,1.52-1.2,3.67-.64,3.67-.64Z"/>
      <path class="cls-4" d="m119.67,47.55s-2.02,1.21-3.6,1.53l-1.59.32s.5-.59,1.52-1.2,3.67-.64,3.67-.64Z"/>
      <path class="cls-26" d="m117.25,46.42s-1.21,1.21-2.84,2.69c-1.2,1.08-.8,1.4-.8,1.4,0,0-.12-.76.09-1.93.21-1.17,3.56-2.16,3.56-2.16Z"/>
      <path class="cls-4" d="m117.25,46.42s-1.21,1.21-2.84,2.69c-1.2,1.08-.8,1.4-.8,1.4,0,0-.12-.76.09-1.93.21-1.17,3.56-2.16,3.56-2.16Z"/>
      <path class="cls-26" d="m114.75,46.42s-.51,1.97-1.31,3.37l-.8,1.4s-.12-.76.09-1.93,2.02-2.84,2.02-2.84Z"/>
      <path class="cls-4" d="m114.75,46.42s-.51,1.97-1.31,3.37l-.8,1.4s-.12-.76.09-1.93,2.02-2.84,2.02-2.84Z"/>
      <path class="cls-26" d="m112.22,48.73s.38.68.14,1.87l-.24,1.2s-.23-.57-.33-1.51c-.1-.94.43-1.56.43-1.56Z"/>
      <path class="cls-4" d="m112.22,48.73s.38.68.14,1.87l-.24,1.2s-.23-.57-.33-1.51c-.1-.94.43-1.56.43-1.56Z"/>
      <path class="cls-26" d="m111.89,49.76s.21.75-.32,1.85l-.52,1.1s-.09-.61.04-1.54c.13-.93.8-1.41.8-1.41Z"/>
      <path class="cls-4" d="m111.89,49.76s.21.75-.32,1.85l-.52,1.1s-.09-.61.04-1.54c.13-.93.8-1.41.8-1.41Z"/>
      <path class="cls-26" d="m111.34,50.28s.11.77-.54,1.8l-.66,1.03s-.01-.62.23-1.52c.24-.91.97-1.3.97-1.3Z"/>
      <path class="cls-4" d="m111.34,50.28s.11.77-.54,1.8l-.66,1.03s-.01-.62.23-1.52c.24-.91.97-1.3.97-1.3Z"/>
      <path class="cls-26" d="m110.58,51.16s-.05.78-.9,1.65l-.86.87s.12-.6.54-1.44c.43-.84,1.22-1.07,1.22-1.07Z"/>
      <path class="cls-4" d="m110.58,51.16s-.05.78-.9,1.65l-.86.87s.12-.6.54-1.44c.43-.84,1.22-1.07,1.22-1.07Z"/>
      <path class="cls-26" d="m109.6,51.96s-.25.74-1.3,1.36l-1.05.62s.27-.55.9-1.25c.63-.7,1.45-.72,1.45-.72Z"/>
      <path class="cls-4" d="m109.6,51.96s-.25.74-1.3,1.36l-1.05.62s.27-.55.9-1.25c.63-.7,1.45-.72,1.45-.72Z"/>
      <line class="cls-10" x1="152.55" y1="102.61" x2="138.15" y2="103.3"/>
      <line class="cls-10" x1="117.09" y1="113.2" x2="115.42" y2="113.98"/>
      <line class="cls-10" x1="118.85" y1="112.38" x2="118.81" y2="112.4"/>
      <line class="cls-10" x1="121.41" y1="111.19" x2="120.31" y2="111.7"/>
      <line class="cls-10" x1="138.15" y1="103.38" x2="122.69" y2="110.59"/>
      <path class="cls-4" d="m136.38,98.86l14.64.4c.92.7,1.15,1.8,1.49,3.39l-.56.95-14.6,1.07"/>
      <path class="cls-10" d="m109.19,94.42s1.13,4.36.32,5.97-1.37,2.58-1.37,2.58c0,0,.65-5.97.56-6.94"/>
      <rect class="cls-19" x="140.22" y="103.7" width="1.33" height="3.71" rx=".44" ry=".44" transform="translate(-35.07 99.88) rotate(-34.99)"/>
      <rect class="cls-9" x="140.22" y="103.7" width="1.33" height="3.71" rx=".44" ry=".44" transform="translate(-35.07 99.88) rotate(-34.99)"/>
      <path class="cls-19" d="m144.18,103.34h.44c.24,0,.44.2.44.44v2.82c0,.24-.2.44-.44.44h-.44c-.24,0-.44-.2-.44-.44v-2.82c0-.24.2-.44.44-.44Z" transform="translate(-34.22 101.84) rotate(-35)"/>
      <path class="cls-9" d="m144.18,103.34h.44c.24,0,.44.2.44.44v2.82c0,.24-.2.44-.44.44h-.44c-.24,0-.44-.2-.44-.44v-2.82c0-.24.2-.44.44-.44Z" transform="translate(-34.22 101.84) rotate(-35)"/>
      <rect class="cls-19" x="147.52" y="103.26" width="1.33" height="3.71" rx=".44" ry=".44" transform="translate(-33.49 104.03) rotate(-35.01)"/>
      <rect class="cls-9" x="147.52" y="103.26" width="1.33" height="3.71" rx=".44" ry=".44" transform="translate(-33.49 104.03) rotate(-35.01)"/>
      <rect class="cls-19" x="150.59" y="102.94" width="1.33" height="3.71" rx=".44" ry=".44" transform="translate(-32.75 105.73) rotate(-35.01)"/>
      <rect class="cls-9" x="150.59" y="102.94" width="1.33" height="3.71" rx=".44" ry=".44" transform="translate(-32.75 105.73) rotate(-35.01)"/>
      <polyline class="cls-10" points="120.46 106.45 136.78 99.91 151.46 99.75"/>
      <line class="cls-10" x1="118.13" y1="107.38" x2="119.12" y2="106.99"/>
      <polyline class="cls-10" points="120.89 107.08 136.99 100.42 151.65 100.18"/>
      <line class="cls-10" x1="87.57" y1="119.64" x2="115.32" y2="108.51"/>
      <line class="cls-10" x1="73.2" y1="125.4" x2="77" y2="123.88"/>
      <line class="cls-10" x1="118.61" y1="108.02" x2="119.32" y2="107.73"/>
      <line class="cls-10" x1="119.62" y1="107.61" x2="119.64" y2="107.6"/>
      <line class="cls-10" x1="118.94" y1="108.72" x2="119.58" y2="108.45"/>
      <polyline class="cls-10" points="121.26 107.73 137.2 100.94 151.85 100.62"/>
      <line class="cls-10" x1="89.18" y1="120.2" x2="115.4" y2="109.35"/>
      <line class="cls-10" x1="73.67" y1="126.61" x2="79.23" y2="124.31"/>
      <line class="cls-10" x1="119.22" y1="109.44" x2="119.83" y2="109.17"/>
      <polyline class="cls-10" points="121.7 108.35 137.41 101.46 152.04 101.05"/>
      <line class="cls-10" x1="90.34" y1="120.91" x2="115.62" y2="110.14"/>
      <line class="cls-10" x1="119.56" y1="110.13" x2="120.18" y2="109.85"/>
      <line class="cls-10" x1="91.08" y1="121.8" x2="115.94" y2="110.88"/>
      <line class="cls-10" x1="74.14" y1="127.82" x2="82.15" y2="124.43"/>
      <polyline class="cls-10" points="122.04 109.01 137.62 101.97 152.23 101.49"/>
      <line class="cls-10" x1="91.61" y1="122.77" x2="112.58" y2="113.29"/>
      <line class="cls-10" x1="119.96" y1="110.79" x2="120.53" y2="110.53"/>
      <line class="cls-10" x1="74.61" y1="129.03" x2="83.19" y2="125.2"/>
      <line class="cls-10" x1="91.91" y1="123.84" x2="112.84" y2="114.11"/>
      <polyline class="cls-10" points="122.2 109.76 137.83 102.49 152.43 101.92"/>
      <line class="cls-10" x1="75.08" y1="130.24" x2="84.01" y2="126.14"/>
      <line class="cls-10" x1="113.34" y1="112.94" x2="116.29" y2="111.61"/>
      <line class="cls-10" x1="75.54" y1="131.45" x2="85.01" y2="127"/>
      <line class="cls-10" x1="114.56" y1="113.31" x2="116.63" y2="112.34"/>
      <path class="cls-5" d="m91.53,59.13c1.16.79,2.49,1.68,3.63,2.47l-1.02-.74s5.32,1.94,8.39,3.71c3.07,1.77,4.68,7.91.81,8.55,0,0,2.18,2.74,1.53,5.97-.65,3.23-4.03,4.92-5.65,4.92s-3.31-1.69-3.31-1.69v-.52c.09.88.18,1.85.28,2.69,0,0,3.03.94,4.73,2.11,1.69,1.17,2.7,1.98,3.83,1.9.24-.32.52-.44.65-.4.44.12,1.01.36,1.05.56s1.41.52,1.41.52l.08-.2c.08-.16.08-.52.93-.24.85.28,5.04,1.69,5.77,2.94.73,1.25,2.46,5.12,3.39,5.65.1.1-.4.61-1.43,1.43,0,0,.39,1.3.89,1.93s-.19,1.52.12,2.37c.3.85,1.04,2.82,1.04,2.82l7.2-2.83c12.19-38.13-6.37-78.85-42.32-91.93-18.46-6.72-38.08-4.92-54.81,3.46C51.32.06,80.65-4.02,108.35,6.06c46.47,16.92,70.81,67.29,54.35,112.51-5.36,14.73-14.4,27.09-25.75,36.49-.06,2.64-.39,5.05-.77,5.43-.2.2-.44.27-.68.2l-3.36-2.06c-6.36,4.69-13.28,8.36-20.56,10.94,0,1.09.09,3.53.24,6.17.13,2.26-.41,9.04-.56,11.78,0,0,1.13.97,1.13,2.1s-.16,2.42-.16,2.42c0,0-.25.21-.48.48,0,0,0,1.13.16,4.36.16,3.23.81,8.23.81,8.23,0,0,.32,1.13,1.45,2.26,1.13,1.13,2.1,2.58,7.26,3.23,5.16.65,11.29-4.03,12.75-3.87,1.45.16.32,2.1-2.9,5.81-3.23,3.71-12.75,5.81-15.81,5.32-3.07-.48-6.94-.16-9.04-.65-2.1-.48-1.94-2.74-1.77-6.13.16-3.39-1.13-6.62-2.26-10.17-1.13-3.55-.97-6.29-.97-6.29,0,0-1.94-1.29-2.1-3.07s.83-2.88,1.76-3.27c-.79-2.92-2.07-8.22-1.84-10.93.13-1.6.32-3.06.5-4.23-.94.21-2.03.54-2.97.72.03.71.04,1.35.14,1.82.32,1.53,1.05,7.99,1.69,8.95.65.97-.32,1.13-1.86.56-8.07-3.37-9.77-7.23-10.4-10.01-12.37.85-25.12-.82-37.57-5.35-21.62-7.87-38.15-22.91-48.31-41.37,7.81,10.64,18.58,19.07,31.69,23.84,9.59,3.49,19.48,4.67,29.12,3.83h-.2c-.46-2.49-.57-6.07-1.03-8.06-.73-3.15-7.83-26.54-8.23-28.07-.4-1.53-1.37-3.47-1.21-5.49.16-2.02,1.53-5.57,4.03-9.2,1.79-2.6,4.24-6.06,5.49-7.82,0,0-.48-1.08-.07-1.36.88-.79,4.25-3.86,5.75-5.78,1.73-2.22,2.9-3.35,5.53-3.19,2.62.16,4.76.16,4.76.16l-.12.28s4.11-.44,4.56-.24l.44.2c1.17-.85,3.15-2.82,4.15-2.86l.21-.06c-.47-.88-1.22-1.39-1.22-1.39-.83.05-1.61-.04-2.1-.04-1.45,0-1.53-.48-2.42-.97-.89-.48-.61-1.61-.56-1.94.04-.32-.24-1.09-.37-1.73-.79-.39-3.3-1.92-4.51-4.89-1.45-3.55,3.15-7.42,5-7.91.79-.21,1.58-.69,2.22-1.18-.13-.19-.55-.95-.21-2.13.4-1.37.81-3.07,1.77-4.11.97-1.05,2.74-2.26,5.73-.89.5.23,1.04.54,1.64.9"/>
      <g>
        <path class="cls-25" d="m92.72,122.06c.34.15.56-.22.56-.22,0,0-.16-.5-.41-.89-.25-.39-.5-1.45-1.11-1.64-.61-.19-1.47-.76-2.04-1.22-.57-.45-2.54,0-2.93-.04-.39-.04-3.62-.33-5.07-.63-1.45-.3-3.54-.89-3.54-.89.12.46-.21,1.05-.14,1.51.14.97-1.39-.44-1.37.4s.58,1.44-.22,1.86c-.75.4.01,1.35.66,1.47,0,0,3.66,1.27,4.38,1.97,1.04,1.02,2.38,2.29,2.86,2.48.48.19,1.44,1.87,1.66,2.56s.51,1.19,1.23,1.22c.73.02,1.61,0,1.98.09.37.09,1.17.35,1.36.03s-.03-1.43-1-1.54c-.97-.12-1.39.02-1.49-.29l-.33-1.04s1.52-.02,2.29.41c.77.43,1.23,1.09,2,.42.61-.53.76-.8.68-1.06,1.04-.35,1.37-1.15,1.17-2.25.58-.12,1.08-1.37.64-1.92,0,0-1-.38-1.83-.82Z"/>
        <path class="cls-4" d="m76.89,122.26s3.47.43,4.51,1.46c1.04,1.02,2.38,2.29,2.86,2.48.48.19,1.44,1.87,1.66,2.56s.51,1.19,1.23,1.22c.73.02,1.61,0,1.98.09.37.09,1.17.35,1.36.03.2-.32-.03-1.43-1-1.54-.97-.12-1.39.02-1.49-.29l-.33-1.04s1.52-.02,2.29.41c.77.43,1.23,1.09,2,.42.76-.67.84-1.07.59-1.33-.25-.26-1.61-1.06-2.17-1.09"/>
        <path class="cls-4" d="m89.61,125.97s.49-.32.85-.27"/>
        <path class="cls-4" d="m92.65,127c1.04-.35,1.46-1.08,1.26-2.18"/>
        <path class="cls-4" d="m91.3,122.77s.32,1,.67,1.18c.35.18,1.65.79,1.65.79.65.17,1.32-1.31.83-1.91,0,0-2.7-1.3-3.23-1.77s-1.11-1.21-1.55-1.67"/>
        <path class="cls-10" d="m89.15,129.97s.06-.36.58-.31c.52.05.87.06.87.06"/>
        <path class="cls-10" d="m88.09,126.24s.44-.1.65-.21"/>
        <path class="cls-10" d="m89.16,124.55s.92.09,1.01-.28c.09-.37-.27-.85-.27-.85"/>
        <path class="cls-10" d="m90.31,121.09s.31.32.46.66"/>
        <path class="cls-4" d="m78.12,116.34s2.06.73,3.51,1.03c1.45.3,4.67.59,5.07.63.4.04,2.37-.41,2.93.04.57.45,1.43,1.03,2.04,1.22.61.19.86,1.25,1.11,1.64s.41.89.41.89c0,0-.22.37-.56.22"/>
        <path class="cls-10" d="m92.52,120.6s-.66.04-.54.43l.27.85"/>
      </g>
      <path class="cls-4" d="m80.06,123.3s0,1.29-.65,1.29-.16-.56-.81-1.05.08.73-1.05.65c-1.13-.08-.89-.73-.65-1.61.24-.89.4-1.05-.32-1.29-.73-.24-.56-1.29.32-1.45.89-.16-.48-.56-.24-1.37.24-.81,1.21.4,1.37-.56.16-.97-.4-2.42.89-2.5,1.29-.08.73,1.13,1.37,1.13s1.13-1.13,1.69-.4c.56.73.4,1.45.4,1.45"/>
    </g>
  </g>
</svg>