<?xml version="1.0" encoding="UTF-8"?>
<svg id="Layer_2" data-name="Layer 2" xmlns="http://www.w3.org/2000/svg" viewBox="0 0 59.13 72.04">
  <defs>
    <style>
      .cls-1 {
        fill: #cc3;
      }

      .cls-1, .cls-2, .cls-3, .cls-4, .cls-5, .cls-6, .cls-7, .cls-8, .cls-9, .cls-10, .cls-11 {
        stroke-width: 0px;
      }

      .cls-1, .cls-2, .cls-3, .cls-4, .cls-8, .cls-9, .cls-10, .cls-11 {
        fill-rule: evenodd;
      }

      .cls-2 {
        fill: #36f;
      }

      .cls-12, .cls-13 {
        stroke-miterlimit: 3.86;
      }

      .cls-12, .cls-13, .cls-14, .cls-15, .cls-16, .cls-17 {
        fill: none;
      }

      .cls-12, .cls-13, .cls-14, .cls-16, .cls-17 {
        stroke: #231f20;
      }

      .cls-12, .cls-16 {
        stroke-width: .5px;
      }

      .cls-13 {
        stroke-width: .51px;
      }

      .cls-14, .cls-15, .cls-16, .cls-17 {
        stroke-miterlimit: 3.86;
      }

      .cls-3 {
        fill: #fcc;
      }

      .cls-4 {
        fill: #960;
      }

      .cls-15 {
        stroke: #000;
      }

      .cls-15, .cls-17 {
        stroke-width: .25px;
      }

      .cls-5 {
        fill: #fff;
      }

      .cls-6 {
        fill: #c93;
      }

      .cls-7, .cls-9 {
        fill: #231f20;
      }

      .cls-8 {
        fill: aqua;
      }

      .cls-10 {
        fill: #9cf;
      }

      .cls-11 {
        fill: #06f;
      }
    </style>
  </defs>
  <g id="Layer_1-2" data-name="Layer 1">
    <g>
      <path class="cls-1" d="m15.96,24.8c-.37-.62-.68-1.17-.84-1.52-.43-.93.62-1.98.62-3.5,0,0-.08-.12,0-.51.08-.39.16-.97.16-.97l.19.04-.04-.09s.04-.06.08-.07c.2-.07.51-.11.82.06.23.12.45.36.62.8l.07.13c-.25-1.46-.26-2.78-.26-2.78.33-1.15.83-2.59,1.39-3.41,1.05-1.52,2.8-2.1,4.7-2.88,1.91-.78,1.71-2.87,1.71-2.87.22,0,.47,0,.7,0h.39c.51,0,1.01.01,1.5.03v.28s-.3,2.1,2.03,2.92c2.33.82,3.81.97,4.59,2.33.61,1.07.65,3.17,1.34,4.44,0,0-.07,1.6-.66,3.58-.27.91-.63,1.83-1.06,2.71v-.2s.15,1.94,1.58,3.23c1.44,1.28,4.15,1.63,5.17,4.28,3.42,8.86,12.12,3.72,12.44.86.47-4.2-2.57-4.35-2.57-4.35.82,1.28.62,1.82-.78,1.65-2.11-.82-.62-4.11-2.45-8.46-1.9-4.55-4.72-5.79-4.72-5.79-.17-2.02-1.54-4.08-3.25-5.02-.95-.53-1.76-.92-2.37-1.21-.71-.54-.25-1.61-1.17-3.5-1.22-2.72-3.61-5.39-9.29-3.89h-.47c-8.24-2.18-9.56,4.43-10.42,7.23-.76,2.5-2.31,2.92-2.64,2.97-1.93.6-3.42,1.6-4.2,3.56-1.36,3.42,1.28,4.43,2.68,4.63-.95,1.13-1.8,2.15-2.53,2.84-1.88,1.77-2.41,3.46-1.85,4.7,1.08-.61,2.16-.69,2.16-.69,0,0,.06.07.18.2l6.41-1.75Z"/>
      <path class="cls-3" d="m18.83,22.7c.51,1.19,1.16,2.32,1.89,3.24-.59-.38-1.16-.75-1.16-.75,0,0-.19-.31-.27-.89-.07-.49-.41-1.09-.47-1.43v-.16Zm8.98-15.45c-.46-.02-.93-.02-1.41-.02h-.39c-.22,0-.45,0-.66,0,0,.45-.12,2.2-1.75,2.87-1.9.78-3.65,1.36-4.7,2.88-.58.83-1.07,2.31-1.4,3.48,0,.16,0,1.33.22,2.65l-.02-.07c-.39-1.01-1.09-.97-1.44-.86-.03.01-.02.13-.04.16l-.19-.04s-.08.58-.16.97c-.08.39,0,.51,0,.51,0,1.52-1.05,2.57-.62,3.5.15.33.51.93.86,1.51-.43.08-1.2.25-2.57.59-1.78.44-3.22.92-3.98,1.19.91.97,5.87,5.77,13.2,7.97-.07.36-.06.76-.03,1.26l-.04-.12h.03c.08.6,2.12,1.75,4.32.3l-.06-.62-.07.03c6.63.7,13.31-1.07,15.59-1.73-.59-.71-1.14-1.7-1.58-2.84-1.02-2.65-3.73-2.99-5.17-4.28-1.27-1.13-1.53-2.77-1.58-3.15.42-.86.77-1.76,1.03-2.65.58-1.98.62-3.65.62-3.65-.63-1.28-.68-3.28-1.28-4.32-.78-1.36-2.25-1.52-4.59-2.33-2.33-.82-2.02-2.92-2.02-2.92l-.11-.29ZM7.95,71.16c0,.21.15.37.91.49,1.01.16,1.55.12,2.57-.27,1.01-.39,1.67-.47,1.67-.47,0,0,1.32.35,3.3.12,1.63-.19,4.83-1.17,6.39-1.58,0,0,.55.21,2.01.22,0,0,.89-3.26-.51-4.7-.66.08-1.94-.08-3.15,0-1.21.08-2.22.43-3.77.7-1.55.27-4.82.74-4.82.74-.16,0-.66-.04-1.48.16-.82.19-2.8,1.22-2.8,1.22,0,0-1.09.54-1.38.66-.29.12-.72.45-.97.58-.25.14-.89.51-1.21.62-.29.11-.49.22-.44.39-.12.06-.2.13-.24.26-.16.51.44.59.44.59,0,.21.25.45.96.5,1.13.08,2.51-.21,2.51-.21Z"/>
      <path class="cls-10" d="m29.11,16.61s-.18.66.25.76l-.04-.02c.57.13.99.17,1.35.15,1,0,1.59-.01,1.98-.47.19-.26.35-.57.47-.91-.14-.04-.3-.1-.48-.19-.36-.17-.49-.31-.75-.37.17.17.26.39.26.64,0,.53-.46.96-1.02.96s-1.02-.43-1.02-.96c0-.22.07-.44.21-.6-.51.15-.87.46-1.18.92l-.02.03-.02.07Z"/>
      <path class="cls-10" d="m23.91,16.61s.18.66-.25.76l.04-.02c-.57.13-.99.17-1.35.15-1,0-1.59-.01-1.98-.47-.19-.26-.35-.57-.47-.91.14-.04.3-.1.48-.19.36-.17.49-.31.75-.37-.17.17-.26.39-.26.64,0,.53.46.96,1.02.96s1.02-.43,1.02-.96c0-.22-.07-.44-.21-.6.51.15.87.46,1.18.92l.02.03.02.07Z"/>
      <path class="cls-8" d="m24.49,69.57s.96-3.11-.31-4.59c-.66.08-1.94-.08-3.15,0-.45.03-.81.03-1.24.12-1.01-.86-5.7-8.04-5.7-8.04.09-1.08.24-2.17.49-3.36,1.4-6.69-.23-11.08-.23-11.08l6.7,10.71c.88-4.73,1.34-13.27,1.41-15.03.04-1.14-.03-1.98-.07-2.64l.2.04c.08.6,2.2,1.81,4.41.31h.14c.26,2.59.93,10.67,1.09,13.14.19,2.95.66,8.48.35,11.31-.31,2.84-1.49,4.28-1.49,4.28,2.25-.18,5.97-.54,9.8-1.17,2.58-.42,4.2-.7,5.3-.86l-.24.03s2.06-.14,3.34-6.47c1.67-8.23,2.49-10.81,2.49-10.81,0,0,1.24,10.89,2.33,14.31,1.09,3.42.7,8.32-.62,8.71,0,0-5.33,1.71-10.11,1.79-4.78.08-10.57-.7-13.26-.7s-3.15-.04-3.15-.04l1.52.04Z"/>
      <path class="cls-11" d="m41.91,62.67s2.06-.14,3.34-6.47c1.67-8.23,2.49-10.81,2.49-10.81,0,0,1.24,10.89,2.33,14.31,1.09,3.42.7,8.32-.62,8.71h-.08s1.94,1.79,4.82.08c2.88-1.71,4.9-4.9,3.65-10.19-1.24-5.29-5.6-11.51-5.75-14.15-.16-2.64-1.2-9.7-1.2-9.7-2.36,1.53-6.04,2.2-8.6-.92l.03.09c-2.26.66-8.83,2.4-15.39,1.75,0,.16.02.39.03.58h.14c.26,2.59.93,10.67,1.09,13.14.19,2.95.66,8.48.35,11.31-.31,2.84-1.5,4.28-1.5,4.28,2.25-.18,5.97-.54,9.82-1.17,2.61-.43,4.24-.71,5.34-.87l-.28.03Zm-20.82-9.25l-6.68-10.74c.47.18,1.93,4.28.53,10.97-.25,1.2-.41,2.32-.5,3.41-.41,4.99.51,8.69.51,8.95-1.16.17-2.5.32-2.5.32-.16,0-.66-.04-1.48.16-.82.19-2.8,1.22-2.8,1.22,0,0-1.09.54-1.38.66-.29.12-.72.45-.97.58-.18.1-.41.29-.72.45-7.7-3.73-4.51-12.98-2.1-18.66s1.48-17.57,2.1-20.84,4.28-3.62,4.28-3.62c0,0,5.08,5.78,13.24,8.22-.04.31-.04.69-.02,1.11l-.2-.04c.04.67.11,1.51.07,2.64-.07,1.76-.5,10.47-1.38,15.2Z"/>
      <path class="cls-11" d="m22.52,15.47s.07.06.1.1c.16.17.25.39.25.63,0,.53-.46.96-1.02.96s-1.02-.43-1.02-.96c0-.24.1-.45.27-.62.18-.05.42-.07.82-.07.25,0,.48.03.68.08l-.08-.1Z"/>
      <path class="cls-2" d="m30.57,15.43s-.09.08-.13.13c-.14.16-.22.37-.22.6,0,.53.46.96,1.02.96s1.02-.43,1.02-.96c0-.25-.09-.45-.27-.62-.18-.05-.42-.07-.82-.07-.28,0-.52.03-.73.09l.13-.12Z"/>
      <path class="cls-17" d="m23.86,16.55c.44.61.7.5.6.81-.1.31-.33.08-.86.06"/>
      <path class="cls-16" d="m19.37,16.23s.37,0,.97-.29c.6-.29.62-.43,1.57-.43s1.48.37,1.92,1.01l.02.03"/>
      <path class="cls-12" d="m23.88,16.62s.18.66-.25.76"/>
      <path class="cls-17" d="m22.51,15.48c.22.18.35.43.35.72,0,.53-.46.96-1.02.96s-1.02-.43-1.02-.96c0-.25.09-.47.26-.64"/>
      <circle class="cls-7" cx="21.89" cy="16.08" r=".52"/>
      <circle class="cls-13" cx="21.89" cy="16.08" r=".52"/>
      <path class="cls-17" d="m22.31,17.51c.36.01.78-.02,1.35-.15"/>
      <path class="cls-17" d="m24.27,14.26s1.48.97,1.67,2.99c.19,2.02.27,2.84.12,3.3-.16.47-.35.7.23,1.21"/>
      <path class="cls-17" d="m24.8,22.09c.15.15.33.18.48.15.23-.06.41-.12.41-.12"/>
      <path class="cls-17" d="m24.64,20.85s-.19.51-.04.91c.05.14.12.25.2.32"/>
      <line class="cls-12" x1="23.53" y1="24.62" x2="23.33" y2="24.8"/>
      <path class="cls-17" d="m25.22,17.53c0,.17-.02.36-.06.58-.16.78-.31,1.59-.31,1.59"/>
      <path class="cls-12" d="m18.75,14.34s.47-.62,2.45-.54c1.98.08,3.07.43,3.07.43"/>
      <path class="cls-17" d="m18.75,14.19s.58-.19,1.63-.19,1.28-.08,2.33.27c1.05.35,1.55.54,1.55,0"/>
      <path class="cls-17" d="m19.64,16.05s.72-.51,1.9-.82c1.18-.31,1.79.27,2.01.54.08.1.18.3.28.5"/>
      <path class="cls-17" d="m23.86,14.97c.14.22.28.52.29.89"/>
      <path class="cls-17" d="m19.76,15.55s.33-.66,1.37-1.03"/>
      <line class="cls-12" x1="23.53" y1="24.62" x2="23.33" y2="24.8"/>
      <path class="cls-17" d="m29.22,16.5c-.44.61-.7.5-.6.81.1.31.33.08.86.06"/>
      <path class="cls-16" d="m33.71,16.19s-.37,0-.97-.29-.62-.43-1.57-.43-1.48.37-1.92,1.01l-.02.03"/>
      <path class="cls-12" d="m29.2,16.57s-.18.66.25.76"/>
      <path class="cls-17" d="m30.56,15.44c-.22.18-.35.43-.35.72,0,.53.46.96,1.02.96s1.02-.43,1.02-.96c0-.25-.09-.47-.26-.64"/>
      <path class="cls-9" d="m30.75,16.06c0-.29.23-.52.52-.52s.52.23.52.52-.23.52-.52.52-.52-.23-.52-.52Z"/>
      <path class="cls-13" d="m30.75,16.06c0-.29.23-.52.52-.52s.52.23.52.52-.23.52-.52.52-.52-.23-.52-.52Z"/>
      <path class="cls-17" d="m30.77,17.47c-.36.01-.78-.02-1.35-.15"/>
      <path class="cls-9" d="m33.13,16.15l.21.11s-.19.49-.68.78c.19-.26.35-.56.47-.89Z"/>
      <path class="cls-17" d="m33.13,16.15l.21.11s-.19.49-.68.78c.19-.26.35-.56.47-.89Z"/>
      <path class="cls-17" d="m28.81,14.22s-1.45.95-1.67,2.93"/>
      <path class="cls-17" d="m28.21,22.1c-.13.1-.28.12-.41.09-.23-.06-.41-.12-.41-.12"/>
      <path class="cls-17" d="m28.44,20.81s.19.51.04.91c-.07.18-.16.3-.27.38"/>
      <line class="cls-12" x1="29.55" y1="24.58" x2="29.74" y2="24.76"/>
      <path class="cls-12" d="m34.33,14.3s-.47-.62-2.45-.54c-1.98.08-3.07.43-3.07.43"/>
      <path class="cls-17" d="m34.33,14.14s-.58-.19-1.63-.19-1.28-.08-2.33.27c-1.05.35-1.55.54-1.55,0"/>
      <path class="cls-17" d="m33.35,15.76s-.7-.51-1.84-.82c-1.15-.31-1.74.27-1.95.54-.08.1-.18.3-.27.5"/>
      <path class="cls-17" d="m29.55,14.53s-.58.51-.62,1.28"/>
      <path class="cls-17" d="m33.32,15.51s-.17-.34-.65-.67"/>
      <path class="cls-12" d="m35.66,17.18s0,1.59-.58,3.58c-.58,1.98-1.63,4.08-2.88,5.52-1.24,1.44-2.18,1.87-3.07,2.33-.89.47-2.64.39-2.64.39"/>
      <path class="cls-12" d="m25.31,28.95c.68.07,1.29.05,1.29.05"/>
      <path class="cls-12" d="m18.71,22.7c.51,1.19,1.16,2.32,1.89,3.24"/>
      <path class="cls-12" d="m17.39,16.44s.04,2.33.62,4.32l.07.25"/>
      <path class="cls-12" d="m18.1,27.85l-1.8-3.13c-.35-.66.04-1.17-.04-2.06-.08-.89-.19-2.22-.04-2.6.16-.39-.43-1.75-.08-1.87.35-.12,1.05-.16,1.44.86.39,1.01.23,1.44.35,2.14l.02.11"/>
      <path class="cls-12" d="m18.09,27.79s.31,1.13.66,1.36c.35.23.93.54,1.75,1.05.82.51,2.95,2.45,3.15,2.84"/>
      <path class="cls-12" d="m25.43,29s1.44.51,1.48,1.4,0,4.78,0,4.78l.08.8"/>
      <path class="cls-12" d="m9.53,26.54c.76-.27,2.11-.71,3.89-1.16,1.36-.34,2.14-.51,2.57-.59"/>
      <path class="cls-12" d="m34.03,23.32s.16,1.94,1.59,3.23c1.44,1.28,4.15,1.63,5.17,4.28,3.42,8.86,12.12,3.72,12.44.86.47-4.2-2.57-4.35-2.57-4.35"/>
      <path class="cls-16" d="m27.81,7.54s-.31,2.1,2.02,2.92c2.33.82,3.81.97,4.59,2.33.78,1.36.62,4.35,2.06,5.25,1.44.89,4.55.31,3.42-2.57"/>
      <path class="cls-12" d="m36.24,26.94s2.33,2.33,5.64-.54c3.3-2.88-.12-5.33-1.48-4.35-1.36.97-.74,2.06-.74,2.06"/>
      <path class="cls-16" d="m37.09,8.51c.62.28,1.42.68,2.37,1.21,2.53,1.4,4.32,5.25,2.57,7.78-1.42,2.06-3.27,1.36-3.27,1.36"/>
      <path class="cls-17" d="m19.5,59.89c-.09.86-.12,1.67-.1,2.39"/>
      <path class="cls-12" d="m22.44,31.78c.08.31.47,1.77.23,2.62-.11.39-.1.83-.07,1.4"/>
      <path class="cls-12" d="m26.93,35.38c6.63.7,13.16-1.05,15.44-1.71"/>
      <path class="cls-12" d="m34.22,24.29s-.35,3.03-1.13,4.98.16,2.8.16,2.8"/>
      <path class="cls-17" d="m31.85,33.78s-.31-.78,1.24-1.09,5.29-1.01,7.23-2.64"/>
      <path class="cls-17" d="m29.67,33.39s1.32-.86,1.87-2.1"/>
      <path class="cls-12" d="m14.38,57.42c.68,1.05,4.5,6.88,5.42,7.65"/>
      <path class="cls-17" d="m14.71,66.01c0-.31-1.52-5.64-.12-12.32,1.4-6.69-.23-11.08-.23-11.08"/>
      <line class="cls-12" x1="14.36" y1="42.6" x2="21.08" y2="53.49"/>
      <path class="cls-17" d="m14.34,36.63c-1.05-2.03-1.54-3.86-1.54-3.86"/>
      <path class="cls-12" d="m21.9,48.01s-3.58-5.99-5.83-8.71c-.69-.83-1.26-1.77-1.73-2.67"/>
      <path class="cls-12" d="m45.14,36.66s-2.88,2.72-2.49,9.33c.17,2.88-1.87,7-3.58,9.95-1.71,2.95-2.84,7.93-2.84,7.93"/>
      <path class="cls-12" d="m41.33,62.86s-3.65-2.14-2.8-5.25"/>
      <path class="cls-12" d="m41.96,62.72s2.06-.14,3.34-6.47c1.67-8.23,2.49-10.81,2.49-10.81,0,0,1.24,10.89,2.33,14.31s.7,8.32-.62,8.71"/>
      <path class="cls-12" d="m49.42,68.46s1.94,1.79,4.82.08c2.88-1.71,4.9-4.9,3.65-10.19s-5.6-11.51-5.75-14.15c-.16-2.64-1.17-9.72-1.17-9.72"/>
      <path class="cls-12" d="m14.24,68.85s-.31.35-1.01.35-1.07-.06-1.38.17c-.31.23-.76.52-1.54.68-.78.16-.97.47-1.32.54s-1.09.04-1.13.35-.12.54.89.7c1.01.16,1.55.12,2.57-.27,1.01-.39,1.67-.47,1.67-.47,0,0,1.32.35,3.3.12,1.98-.23,6.3-1.63,7.15-1.75"/>
      <path class="cls-12" d="m22.98,69.51s.47.04,3.15.04,8.48.78,13.26.7c4.78-.08,10.15-1.75,10.15-1.75"/>
      <path class="cls-17" d="m44.06,62.39s3.73-.39,4.35-.31"/>
      <path class="cls-12" d="m12.18,67.76s-.68.37-1.89.56c-1.21.19-1.18.8-2.3,1.15-.53.16-1.83.25-2.2.66-.41.43-1.01.32-1.2.43-.35.19-.39.74.74.82,1.13.08,2.57-.12,2.57-.12"/>
      <path class="cls-12" d="m4.32,70.91s-.54-.12-.39-.62c.11-.36.64-.29,1.22-.78.3-.14,1.7-.47,2.11-.71,1.57-.95,2.09-.94,3.51-1.58"/>
      <path class="cls-12" d="m24.19,64.96c-.66.08-1.94-.08-3.15,0-1.21.08-2.22.43-3.77.7-1.55.27-4.82.74-4.82.74-.16,0-.66-.04-1.48.16-.82.19-2.8,1.22-2.8,1.22,0,0-1.09.54-1.38.66-.29.12-.72.45-.97.58s-.89.51-1.21.62c-.31.12-.52.23-.43.43"/>
      <path class="cls-17" d="m12.58,67.43s.66-.47,1.13-.43"/>
      <path class="cls-17" d="m14.92,33.78c.14,1.38.47,3.53.73,5.08"/>
      <path class="cls-17" d="m14.35,42.64s-5.83-7.31-6.92-9.8c-1.09-2.49-2.1-5.09.31-6.03"/>
      <path class="cls-17" d="m47.79,45.4s.89-6.73.43-9.76"/>
      <path class="cls-17" d="m16.76,29.58s1.71,2.95,5.91,3.34"/>
      <path class="cls-12" d="m24.5,69.55s1.09-3.27-.31-4.7l.74.04s5.83-.31,11.97-1.32c6.14-1.01,6.84-1.17,8.01-1.01,1.17.16,3.89.93,3.89.93"/>
      <path class="cls-16" d="m25.28,7.23s.12,2.1-1.79,2.88-3.65,1.36-4.7,2.88c-1.05,1.52-1.85,5.17-1.85,5.17"/>
      <path class="cls-16" d="m24.38,7.5c-.19.12-2.18,2.25-6.38,2.88-4.2.62-7.74,1.09-9.1,4.51s1.28,4.43,2.68,4.63"/>
      <path class="cls-12" d="m21.04,9.68s-2.6,2.06-4.74,4.35c-2.14,2.29-5.29,6.49-7.23,8.32-1.88,1.77-2.41,3.46-1.85,4.7"/>
      <path class="cls-17" d="m18.71,14.3s-.19,1.13.08,1.56"/>
      <path class="cls-17" d="m17.66,16.52s.58,1.75,1.44,2.95c.86,1.21,1.32,4.04,2.22,5.87"/>
      <path class="cls-17" d="m16.3,20.06l.27-.04s.08-1.17-.08-1.36c-.16-.19-.39-.12-.39-.12"/>
      <path class="cls-17" d="m17.58,21.84s.04.31.35.31.62-1.09.62-1.09"/>
      <path class="cls-12" d="m18.26,28.49s-2.55-3.95-3.13-5.21c-.43-.93.62-1.98.62-3.5,0,0-.08-.12,0-.51.08-.39.16-.97.16-.97l.19.04"/>
      <circle class="cls-5" cx="22.09" cy="15.99" r=".16"/>
      <circle class="cls-5" cx="31.54" cy="15.99" r=".16"/>
      <path class="cls-9" d="m19.86,16.15l-.21.11s.19.49.68.78c-.19-.26-.35-.56-.47-.89Z"/>
      <path class="cls-17" d="m19.86,16.15l-.21.11s.19.49.68.78c-.19-.26-.35-.56-.47-.89Z"/>
      <path class="cls-12" d="m42.77,14.77s2.76,1.21,4.67,5.75c1.91,4.55.19,7.93,2.76,8.55"/>
      <path class="cls-17" d="m50.86,27.36c3.03.62.54,9.99-7.15,7.39"/>
      <path class="cls-12" d="m49.65,28.96c1.59.26,1.95-.29,1.09-1.63"/>
      <path class="cls-12" d="m13.05,11.33s1.85-.18,2.7-2.97S17.93-1.05,26.17,1.12"/>
      <path class="cls-12" d="m35.93,5.01c-1.22-2.72-3.61-5.39-9.29-3.89"/>
      <path class="cls-17" d="m40.36,11.39s-1.22-.12-2.24-1.17"/>
      <path class="cls-17" d="m43.47,62.43c.23,0,3.93-2.18,4.63-3.5.7-1.32.23-1.67-.27-1.87-.51-.19-1.28.51-1.83,1.59-.54,1.09-1.01,1.9-1.48,2.53"/>
      <path class="cls-6" d="m36.2,3.96c0-.19.16-.35.35-.35s.35.16.35.35-.16.35-.35.35-.35-.16-.35-.35Zm-5.25-1.09c0-.19.16-.35.35-.35s.35.16.35.35-.16.35-.35.35-.35-.16-.35-.35Zm-5.17-1.55c0-.19.16-.35.35-.35s.35.16.35.35-.16.35-.35.35-.35-.16-.35-.35Zm-7.31,4.74s0,.06,0,.09v-.09Zm18-1.71l.02.05c.04-.05.1-.09.16-.09.45,0,.41,1.86.41,2.02,0,.15.04,1.8-.33,2l.02.1s-.41-.1-1.14-.25c-.04,0-.08.01-.13.01-.12,0-.23-.04-.33-.1-1.88-.36-5.22-.87-8.87-.87h-.39c-5.6,0-10.46,1.21-10.46,1.21v-.1c-.35-.23-.31-1.85-.31-2,0-.52.03-1,.08-1.34.02-.13.05-.48.2-.62-.14-.05-.23-.18-.23-.33,0-.19.16-.35.35-.35s.35.16.35.35c0,.14-.09.27-.21.32.04.04.08.1.11.18.16.16.45.35.96.35.28.02.5.25.65.57.03.02.06.05.07.09,0,.02.17.55.71.43.06-.57.46-1.06.99-1.06.15,0,.3.04.42.11,0-.07-.01-.13-.01-.2,0-.74.46-1.38,1.11-1.56-.13-.05-.21-.18-.21-.32,0-.19.16-.35.35-.35s.35.16.35.35c0,.11-.05.21-.13.27.42,0,.78.17,1.04.45,0,0,.05,0,.1.05.3.29.72.38,1.13.29.12-.01.24-.03.36-.03.21,0,.42.05.6.14-.02-.07-.03-.14-.03-.21,0-.39.31-.7.7-.7.04,0,.08,0,.12.01-.03-.11-.05-.23-.05-.35,0-.65.46-1.21,1.08-1.21s1.08.56,1.08,1.21c0,.12-.02.24-.05.35.05-.01.1-.02.15-.02.39,0,.7.31.7.7,0,.07-.01.14-.03.21.18-.09.39-.14.6-.14.1,0,.19.01.28.03.02,0,.05,0,.08,0,.41.09.93-.02,1.2-.37.03-.04.08-.06.12-.06.25-.23.58-.37.94-.37.83,0,1.48.74,1.48,1.61,0,.11,0,.21-.03.31.13-.08.28-.12.43-.12.5,0,.88.43.97.95.34.08.62-.1.72-.43.02-.06.06-.1.11-.11.13-.24.3-.41.52-.46l-.02-.05c.91,0,1.13-.58,1.13-.58Zm-.11,3.62c-.05-.18-.08-.39-.1-.61-.06.21-.14.39-.25.54l.35.08Zm-1.57-.33c-.07-.15-.12-.33-.16-.51-.19-.03-.57-.09-.83-.13-.12.19-.29.33-.49.4.55.08,1.05.17,1.48.25Zm-2.27-.36c-.17-.12-.3-.29-.39-.5-.02,0-1.63-.19-2.4-.25-.1.16-.23.3-.39.41,1.15.08,2.22.2,3.18.33Zm-3.48-.35c-.03-.06-.02-.14.06-.19.15-.09.27-.22.37-.37,0-.05.03-.11.08-.14.09-.18.14-.4.14-.63,0-.73-.54-1.3-1.17-1.3s-1.17.57-1.17,1.3c0,.08,0,.15.02.22.14.06.14.19.07.27.09.24.24.45.43.6.07.05.08.12.05.18.38.02.75.04,1.11.06Zm-1.46-.07c-.24-.21-.41-.5-.49-.83-.62-.41-.79-1.24-.76-1.97-.08.02-.17.04-.26.04-.08,0-.16,0-.23-.03.03.72-.15,1.55-.76,1.96-.08.33-.25.62-.49.83.44-.01.89-.02,1.34-.02h.32c.45,0,.9,0,1.34.02Zm-3.34.01c-.02-.06-.01-.13.05-.18.19-.14.35-.35.43-.6-.07-.07-.07-.21.05-.26.03-.08.03-.16.03-.23,0-.73-.54-1.3-1.17-1.3s-1.17.57-1.17,1.3c0,.23.05.44.14.63.05.03.08.08.08.14.1.15.22.27.37.37.08.05.09.13.06.19.36-.02.74-.04,1.11-.06Zm-1.42.08c-.15-.11-.28-.25-.39-.41-.78.05-2.38.24-2.38.24-.02,0-.05,0-.07,0-.14.28-.38.49-.68.55,1.03-.15,2.23-.29,3.51-.38Zm-3.61.39s-.05,0-.08,0c-.29,0-.53-.14-.71-.36-.27.04-.73.11-.92.15-.04.19-.11.37-.19.52.54-.1,1.18-.21,1.9-.31Zm-3.02.53c-.12-.14-.22-.34-.29-.56-.02.23-.05.46-.1.64.11-.02.24-.05.39-.08Zm20.12-3c-.11.09-.26.19-.47.24.17.14.3.37.39.64.01-.29.03-.55.06-.76l.02-.12Zm-20.48,0c.04.24.07.52.08.77.08-.25.21-.46.37-.6-.19-.04-.33-.1-.44-.17Zm6.88-.53c-.11-.02-.22-.05-.33-.09.04.11.07.23.08.35.07-.1.15-.19.24-.26Zm-3.59.9c-.33,0-.65.33-.68.82v.07c0,.26.07.44.16.57,0,.01.02.02.02.04.13.18.31.29.5.29.35,0,.69-.37.69-.9s-.34-.9-.69-.9Zm-2.46-.04c-.25,0-.58.48-.58,1.3,0,.74.27,1.2.51,1.29l.24-.05c.21-.15.42-.59.42-1.24,0-.83-.34-1.3-.58-1.3Zm4.34-1.67c-.63,0-1.17.57-1.17,1.3s.54,1.3,1.17,1.3,1.17-.57,1.17-1.3-.54-1.3-1.17-1.3Zm4.5.73c-.12.22-.35.36-.61.36-.03,0-.07,0-.1,0,.19.27.31.6.31.96.3-.34.4-.85.4-1.31Zm-.61-.73c-.21,0-.39.17-.39.39s.17.39.39.39.39-.17.39-.39-.17-.39-.39-.39Zm-9.39,4.26c.08-.47.1-.98.1-1.46s-.01-.98-.1-1.46c-.08.47-.1.98-.1,1.46s.01.98.1,1.46Zm2.04-.98c.19-.03.47-.08.7-.11-.05-.12-.09-.26-.11-.4-.22.03-.42-.01-.59-.11.01.1.02.21.02.31s0,.2-.02.31Zm4.11-.52c.22-.02.43-.04.61-.05-.05-.12-.08-.26-.1-.39-.14.19-.31.34-.51.45Zm-1.57.17l.55-.06c-.19-.05-.36-.15-.51-.27,0,.12-.01.23-.04.34Zm11.04-2.93c-.63,0-1.17.57-1.17,1.3s.54,1.3,1.17,1.3,1.17-.57,1.17-1.3-.54-1.3-1.17-1.3Zm-4.77.18c.02-.07.09-.1.15-.1.19-.16.32-.42.32-.73,0-.52-.36-.9-.77-.9s-.77.38-.77.9c0,.31.13.57.32.73.07-.01.16.02.18.11.08.04.17.06.27.06.1,0,.2-.02.3-.07Zm.99.9s-.07,0-.1,0c-.26,0-.49-.15-.61-.36,0,.47.11.97.4,1.31,0-.36.12-.69.31-.96Zm-.1-1.08c-.21,0-.39.17-.39.39s.17.39.39.39.39-.17.39-.39-.17-.39-.39-.39Zm9.39,4.26c.08-.47.1-.98.1-1.46s-.01-.98-.1-1.46c-.08.47-.1.98-.1,1.46s.01.98.1,1.46Zm-1.73-.88s.03.08.02.12c.05.31.16.55.28.69l.44.09c.21-.16.41-.59.41-1.23,0-.82-.34-1.3-.58-1.3s-.58.48-.58,1.3c0,.12,0,.22.02.33Zm-5.03-.68c.18.01.39.03.61.05-.2-.11-.38-.26-.51-.45-.02.14-.05.27-.1.39Zm-.12-1.98c-.1.04-.21.07-.32.09.09.08.17.16.24.26.02-.12.04-.24.08-.35Zm2.28,2.2c-.01-.07-.02-.15-.02-.22,0-.04,0-.07,0-.11-.15.13-.33.22-.52.27l.53.06Zm1.98-.16c0,.14-.03.27-.08.4.21.03.47.07.64.1,0-.07,0-.15,0-.22,0-.13,0-.26.03-.39-.17.1-.37.14-.59.11Zm-1-.96c-.35,0-.69.37-.69.9s.34.9.69.9c.18,0,.36-.1.49-.27-.02-.08.02-.17.11-.19.05-.13.08-.27.08-.43,0-.53-.34-.9-.69-.9Z"/>
      <path class="cls-15" d="m36.2,3.96c0-.19.16-.35.35-.35s.35.16.35.35-.16.35-.35.35-.35-.16-.35-.35Zm-5.25-1.09c0-.19.16-.35.35-.35s.35.16.35.35-.16.35-.35.35-.35-.16-.35-.35Zm-5.17-1.55c0-.19.16-.35.35-.35s.35.16.35.35-.16.35-.35.35-.35-.16-.35-.35Zm-7.31,4.74s0,.06,0,.09v-.09Zm18-1.71l.02.05c.04-.05.1-.09.16-.09.45,0,.41,1.86.41,2.02,0,.15.04,1.8-.33,2l.02.1s-.41-.1-1.14-.25c-.04,0-.08.01-.13.01-.12,0-.23-.04-.33-.1-1.88-.36-5.22-.87-8.87-.87h-.39c-5.6,0-10.46,1.21-10.46,1.21v-.1c-.35-.23-.31-1.85-.31-2,0-.52.03-1,.08-1.34.02-.13.05-.48.2-.62-.14-.05-.23-.18-.23-.33,0-.19.16-.35.35-.35s.35.16.35.35c0,.14-.09.27-.21.32.04.04.08.1.11.18.16.16.45.35.96.35.28.02.5.25.65.57.03.02.06.05.07.09,0,.02.17.55.71.43.06-.57.46-1.06.99-1.06.15,0,.3.04.42.11,0-.07-.01-.13-.01-.2,0-.74.46-1.38,1.11-1.56-.13-.05-.21-.18-.21-.32,0-.19.16-.35.35-.35s.35.16.35.35c0,.11-.05.21-.13.27.42,0,.78.17,1.04.45,0,0,.05,0,.1.05.3.29.72.38,1.13.29.12-.01.24-.03.36-.03.21,0,.42.05.6.14-.02-.07-.03-.14-.03-.21,0-.39.31-.7.7-.7.04,0,.08,0,.12.01-.03-.11-.05-.23-.05-.35,0-.65.46-1.21,1.08-1.21s1.08.56,1.08,1.21c0,.12-.02.24-.05.35.05-.01.1-.02.15-.02.39,0,.7.31.7.7,0,.07-.01.14-.03.21.18-.09.39-.14.6-.14.1,0,.19.01.28.03.02,0,.05,0,.08,0,.41.09.93-.02,1.2-.37.03-.04.08-.06.12-.06.25-.23.58-.37.94-.37.83,0,1.48.74,1.48,1.61,0,.11,0,.21-.03.31.13-.08.28-.12.43-.12.5,0,.88.43.97.95.34.08.62-.1.72-.43.02-.06.06-.1.11-.11.13-.24.3-.41.52-.46l-.02-.05c.91,0,1.13-.58,1.13-.58Zm-.11,3.62c-.05-.18-.08-.39-.1-.61-.06.21-.14.39-.25.54l.35.08Zm-1.57-.33c-.07-.15-.12-.33-.16-.51-.19-.03-.57-.09-.83-.13-.12.19-.29.33-.49.4.55.08,1.05.17,1.48.25Zm-2.27-.36c-.17-.12-.3-.29-.39-.5-.02,0-1.63-.19-2.4-.25-.1.16-.23.3-.39.41,1.15.08,2.22.2,3.18.33Zm-3.48-.35c-.03-.06-.02-.14.06-.19.15-.09.27-.22.37-.37,0-.05.03-.11.08-.14.09-.18.14-.4.14-.63,0-.73-.54-1.3-1.17-1.3s-1.17.57-1.17,1.3c0,.08,0,.15.02.22.14.06.14.19.07.27.09.24.24.45.43.6.07.05.08.12.05.18.38.02.75.04,1.11.06Zm-1.46-.07c-.24-.21-.41-.5-.49-.83-.62-.41-.79-1.24-.76-1.97-.08.02-.17.04-.26.04-.08,0-.16,0-.23-.03.03.72-.15,1.55-.76,1.96-.08.33-.25.62-.49.83.44-.01.89-.02,1.34-.02h.32c.45,0,.9,0,1.34.02Zm-3.34.01c-.02-.06-.01-.13.05-.18.19-.14.35-.35.43-.6-.07-.07-.07-.21.05-.26.03-.08.03-.16.03-.23,0-.73-.54-1.3-1.17-1.3s-1.17.57-1.17,1.3c0,.23.05.44.14.63.05.03.08.08.08.14.1.15.22.27.37.37.08.05.09.13.06.19.36-.02.74-.04,1.11-.06Zm-1.42.08c-.15-.11-.28-.25-.39-.41-.78.05-2.38.24-2.38.24-.02,0-.05,0-.07,0-.14.28-.38.49-.68.55,1.03-.15,2.23-.29,3.51-.38Zm-3.61.39s-.05,0-.08,0c-.29,0-.53-.14-.71-.36-.27.04-.73.11-.92.15-.04.19-.11.37-.19.52.54-.1,1.18-.21,1.9-.31Zm-3.02.53c-.12-.14-.22-.34-.29-.56-.02.23-.05.46-.1.64.11-.02.24-.05.39-.08Zm20.12-3c-.11.09-.26.19-.47.24.17.14.3.37.39.64.01-.29.03-.55.06-.76l.02-.12Zm-20.48,0c.04.24.07.52.08.77.08-.25.21-.46.37-.6-.19-.04-.33-.1-.44-.17Zm6.88-.53c-.11-.02-.22-.05-.33-.09.04.11.07.23.08.35.07-.1.15-.19.24-.26Zm-3.59.9c-.33,0-.65.33-.68.82v.07c0,.26.07.44.16.57,0,.01.02.02.02.04.13.18.31.29.5.29.35,0,.69-.37.69-.9s-.34-.9-.69-.9Zm-2.46-.04c-.25,0-.58.48-.58,1.3,0,.74.27,1.2.51,1.29l.24-.05c.21-.15.42-.59.42-1.24,0-.83-.34-1.3-.58-1.3Zm4.34-1.67c-.63,0-1.17.57-1.17,1.3s.54,1.3,1.17,1.3,1.17-.57,1.17-1.3-.54-1.3-1.17-1.3Zm4.5.73c-.12.22-.35.36-.61.36-.03,0-.07,0-.1,0,.19.27.31.6.31.96.3-.34.4-.85.4-1.31Zm-.61-.73c-.21,0-.39.17-.39.39s.17.39.39.39.39-.17.39-.39-.17-.39-.39-.39Zm-9.39,4.26c.08-.47.1-.98.1-1.46s-.01-.98-.1-1.46c-.08.47-.1.98-.1,1.46s.01.98.1,1.46Zm2.04-.98c.19-.03.47-.08.7-.11-.05-.12-.09-.26-.11-.4-.22.03-.42-.01-.59-.11.01.1.02.21.02.31s0,.2-.02.31Zm4.11-.52c.22-.02.43-.04.61-.05-.05-.12-.08-.26-.1-.39-.14.19-.31.34-.51.45Zm-1.57.17l.55-.06c-.19-.05-.36-.15-.51-.27,0,.12-.01.23-.04.34Zm11.04-2.93c-.63,0-1.17.57-1.17,1.3s.54,1.3,1.17,1.3,1.17-.57,1.17-1.3-.54-1.3-1.17-1.3Zm-4.77.18c.02-.07.09-.1.15-.1.19-.16.32-.42.32-.73,0-.52-.36-.9-.77-.9s-.77.38-.77.9c0,.31.13.57.32.73.07-.01.16.02.18.11.08.04.17.06.27.06.1,0,.2-.02.3-.07Zm.99.9s-.07,0-.1,0c-.26,0-.49-.15-.61-.36,0,.47.11.97.4,1.31,0-.36.12-.69.31-.96Zm-.1-1.08c-.21,0-.39.17-.39.39s.17.39.39.39.39-.17.39-.39-.17-.39-.39-.39Zm9.39,4.26c.08-.47.1-.98.1-1.46s-.01-.98-.1-1.46c-.08.47-.1.98-.1,1.46s.01.98.1,1.46Zm-1.73-.88s.03.08.02.12c.05.31.16.55.28.69l.44.09c.21-.16.41-.59.41-1.23,0-.82-.34-1.3-.58-1.3s-.58.48-.58,1.3c0,.12,0,.22.02.33Zm-5.03-.68c.18.01.39.03.61.05-.2-.11-.38-.26-.51-.45-.02.14-.05.27-.1.39Zm-.12-1.98c-.1.04-.21.07-.32.09.09.08.17.16.24.26.02-.12.04-.24.08-.35Zm2.28,2.2c-.01-.07-.02-.15-.02-.22,0-.04,0-.07,0-.11-.15.13-.33.22-.52.27l.53.06Zm1.98-.16c0,.14-.03.27-.08.4.21.03.47.07.64.1,0-.07,0-.15,0-.22,0-.13,0-.26.03-.39-.17.1-.37.14-.59.11Zm-1-.96c-.35,0-.69.37-.69.9s.34.9.69.9c.18,0,.36-.1.49-.27-.02-.08.02-.17.11-.19.05-.13.08-.27.08-.43,0-.53-.34-.9-.69-.9Z"/>
      <path class="cls-12" d="m18.68,27.33c-.1-.23-.22-.46-.36-.62-.43-.51-.86-.97-.86-1.28s-.12-1.48-.12-1.48c0,0-.23-.89.04-1.59.27-.7.39-.78.58-1.28s.82-.12.89.27c.08.39-.08,1.09-.16,1.36-.08.27.39,1.01.47,1.59.08.58.27.89.27.89,0,0,1.94,1.13,2.45,1.67.51.54,1.24,1.09,1.71,1.44l.12.06c1.17.31,1.89.74,1.89.74"/>
      <path class="cls-17" d="m18.69,27.34s.21.68.31.79.56.29.56.29"/>
      <path class="cls-12" d="m25.06,25.9s.06.39.74.49c.39.06.62.06.74.05.13,0,.36-.01.73-.07.68-.1.74-.49.74-.49"/>
      <path class="cls-12" d="m23.41,24.76s.78.37,1.3.29c.52-.08.91-.17,1.15-.08.25.11.38.22.66.2.33,0,.41-.1.64-.19s.68-.05,1.21.03c.52.08,1.3-.29,1.3-.29"/>
      <path class="cls-17" d="m23.53,24.68s1.09.04,1.4-.14c.31-.18.72-.45,1.11-.41.39.04.33.32.52.34.19-.02.09-.34.48-.38.39-.04.8.23,1.11.41.31.17,1.4.14,1.4.14"/>
      <path class="cls-12" d="m25.01,21.88s.12-.18.33-.1c.21.08.51.43.72.58.21.16.12.18.47.18s.29-.06.5-.22c.21-.16.51-.51.72-.58.21-.08.33.1.33.1"/>
      <path class="cls-12" d="m39.55,23.63s-.82-1.9,1.55-3.03c2.37-1.13,5.64.51,5.56,3.27-.08,2.76-.7,3.11-2.49,4.24-1.79,1.13-5.75.12-5.75.12"/>
      <path class="cls-17" d="m38.81,18.93s2.84-.89,1.87-3.69c-.63-1.8-1.44-2.1-2.84-3.54-1.4-1.44-.82-3.34-.82-3.34"/>
      <path class="cls-12" d="m17.54,59.28c.08-.31,1.24-3.27,3.5-5.13"/>
      <path class="cls-12" d="m27.07,64.73s1.21-1.44,1.52-4.28c.31-2.84-.16-8.36-.35-11.31-.16-2.47-.83-10.55-1.09-13.14h-.14c-2.22,1.5-4.33.29-4.41-.31l-.2-.04c.04.67.11,1.51.07,2.64-.08,2.1-.72,13.84-1.96,17.26-.44,1.2-.73,2.44-.9,3.62"/>
      <path class="cls-17" d="m11.22,67.04s.39-.28.79-.39"/>
      <path class="cls-17" d="m8.07,70.81c0,.06-.02.25.11.33.13.08.75-.11.91-.12.17,0,.16-.41.09-.46"/>
      <path class="cls-17" d="m4.58,70.57c0,.06-.01.25.12.33.13.07.78-.17.94-.19.16-.02.14-.41.07-.46"/>
      <path class="cls-17" d="m4.08,70.08c0,.06.03.15.16.2.14.05.75-.24.91-.28s.09-.36,0-.39"/>
      <path class="cls-17" d="m39.39,23.13c4.59-6.3,8.94,4.04-1.4,4.9"/>
      <path class="cls-17" d="m37.02,8.51s.31,1.75,1.13,2.53,3.46,1.05,3.58,3.85c.12,2.8-1.28,3.54-2.76,4.04"/>
      <path class="cls-17" d="m11.67,19.39s-1.67-.54-.93-3.03c.74-2.49,6.3-3.93,10.19-6.65"/>
      <path class="cls-17" d="m20.88,9.79s-1.55.86-3.73,1.24c-2.18.39-6.61.74-8.2,3.89"/>
      <path class="cls-17" d="m13.96,11.04s8.36-1.44,11.62-5.4"/>
      <path class="cls-17" d="m24.85,7.38s-.35.93-2.18,2.06c-1.83,1.13-3.89,1.98-5.05,6.18"/>
      <path class="cls-17" d="m9.14,26.55c.19-1.09.54-2.57,3.65-6.45s7.74-10.03,7.74-10.03"/>
      <path class="cls-17" d="m26.6,1.32s2.53-.86,4.32.19c1.79,1.05.97,4.94,3.15,7.93,2.18,2.99.7,7.19,2.57,8.63"/>
      <path class="cls-17" d="m14.12,10.96c.16-.08,2.68-.39,3.93-3.07,1.24-2.68,2.64-7.58,7.74-6.76"/>
      <path class="cls-12" d="m14.7,10.73s2.68-1.63,3.73-4.47c1.05-2.84,2.14-4.63,5.01-5.02"/>
      <path class="cls-17" d="m26.79,1.55s1.79-.86,2.68,3.23c.89,4.08-.19,5.21,2.41,6.38"/>
      <path class="cls-17" d="m7.47,26.82c.19-1.09.47-2.79,3.93-6.38,3.03-3.15,8.32-9.72,8.32-9.72"/>
      <path class="cls-12" d="m42.73,16.28s2.45-.04,4.35,4.51c1.91,4.55.54,7.66,3.11,8.28"/>
      <path class="cls-12" d="m37.58,18.4s-2.31,3.32-1.54,5.73c.78,2.41,2.18,3.5,5.44,2.49"/>
      <path class="cls-17" d="m39,28.41s2.1,0,3.5,1.56c.48.53,1.75,2.22,3.42,2.57,3.23.67,7.26-.8,5.05-5.21"/>
      <path class="cls-17" d="m46.47,25.52c.58,1.89,1.36,3.56,3.53,3.56"/>
      <path class="cls-17" d="m40.63,18.77s1.47.52,3.05,1.54"/>
      <path class="cls-17" d="m35.31,12.28c.04.16.23,3.54,2.14,4.2s2.45-.93,2.45-.93"/>
      <path class="cls-12" d="m28.82,54s4.9-1.79,7.39-1.79"/>
      <path class="cls-12" d="m30.45,51.74s3.65-.16,4.51-.16"/>
      <path class="cls-12" d="m33.09,53.61s1.63.23,3.27,1.01"/>
      <path class="cls-12" d="m15.05,66.05c0-.31-1.52-5.64-.12-12.32,1.04-4.95.41-8.65.01-10.23"/>
      <path class="cls-4" d="m12.25,41.09c0-.69.56-1.24,1.24-1.24s1.24.56,1.24,1.24-.56,1.24-1.24,1.24-1.24-.56-1.24-1.24Z"/>
      <path class="cls-12" d="m12.25,41.09c0-.69.56-1.24,1.24-1.24s1.24.56,1.24,1.24-.56,1.24-1.24,1.24-1.24-.56-1.24-1.24Z"/>
      <path class="cls-4" d="m46.78,44.04c0-.69.56-1.24,1.24-1.24s1.24.56,1.24,1.24-.56,1.24-1.24,1.24-1.24-.56-1.24-1.24Z"/>
      <path class="cls-12" d="m46.78,44.04c0-.69.56-1.24,1.24-1.24s1.24.56,1.24,1.24-.56,1.24-1.24,1.24-1.24-.56-1.24-1.24Z"/>
      <path class="cls-17" d="m48.14,45.48s1.24,10.89,2.33,14.31c1.09,3.42.7,8.32-.62,8.71"/>
      <path class="cls-4" d="m14.26,57.33s4.51,6.96,5.52,7.81c-.78.15-1.48.4-2.53.58-.66.12-1.67.21-2.56.35,0-.26-.84-3.76-.43-8.75Z"/>
      <path class="cls-12" d="m14.26,57.33s4.51,6.96,5.52,7.81c-.78.15-1.48.4-2.53.58-.66.12-1.67.21-2.56.35,0-.26-.84-3.76-.43-8.75Z"/>
      <path class="cls-17" d="m27.12,35.81c6.63.7,13.29-1.1,15.57-1.76"/>
      <path class="cls-17" d="m8.84,26.48s5.54,6.12,13.69,8.56"/>
      <path class="cls-17" d="m12.8,40.05c-1.81-2.36-4.37-5.83-5.05-7.4-1.09-2.49-2.15-5.02.26-5.95"/>
      <path class="cls-17" d="m48.46,42.92c.21-2.23.42-5.38.14-7.2"/>
      <path class="cls-12" d="m5.1,69.47c-7.7-3.73-4.51-12.98-2.1-18.66s1.48-17.57,2.1-20.84c.62-3.27,4.28-3.62,4.28-3.62,0,0,5.08,5.78,13.24,8.22"/>
      <path class="cls-17" d="m43.2,35.41s-.93,5.75-.86,7.23"/>
      <path class="cls-17" d="m49.96,37.74s2.41,7.78,2.95,9.1"/>
      <path class="cls-17" d="m6.73,59.75s-1.09-15.4-2.02-19.83"/>
      <path class="cls-14" d="m23.35,69.32s.47.04,3.15.04,8.48.78,13.26.7,10.15-1.75,10.15-1.75c0,0,1.83,1.75,4.7.04,2.88-1.71,4.9-4.9,3.65-10.19-1.24-5.29-5.6-11.51-5.75-14.15-.16-2.64-1.17-9.72-1.17-9.72,1.25-.83,2.16-1.93,2.25-2.8.47-4.2-2.57-4.35-2.57-4.35.74,1.14.58,1.74-.45,1.72-2.57-.62-.87-3.98-2.77-8.53-1.91-4.55-4.72-5.8-4.72-5.8-.18-2.01-1.54-4.07-3.25-5.01-.95-.53-1.76-.92-2.37-1.21l-.35-.12v-.05c.36-.2.32-1.85.32-2s.04-1.87-.35-2.01c0,0,.2-.22.2-.36,0-.19-.16-.35-.35-.35s-.35.16-.35.35c0,.17.14.35.29.39h-.02s-.11.48-.55.66c-1.22-2.72-3.61-5.39-9.29-3.89h-.47c-5.62-1.49-8.02,1.12-9.26,3.81-.12-.02-.12-.05-.18-.05-.51,0-.81-.19-.96-.35-.03-.08-.07-.14-.11-.18.12-.05.21-.18.21-.32,0-.19-.16-.35-.35-.35s-.35.16-.35.35c0,.15.1.28.23.33-.15.14-.18.5-.2.62-.05.34-.08.82-.08,1.34,0,.15-.04,1.77.32,2v.1s.14-.04.14-.04l.16-.04c-.86,2.8-2.73,3-2.73,3-1.88.61-3.34,1.6-4.11,3.53-1.36,3.42,1.3,4.48,2.7,4.68-.94,1.11-1.82,2.11-2.54,2.79-1.88,1.77-2.41,3.46-1.85,4.7-.96.51-1.81,1.35-2.12,2.92-.62,3.27.31,15.16-2.1,20.84-2.41,5.68-5.6,14.93,2.1,18.66-.14.07-.39.14-.49.17-.31.12-.58.21-.48.41,0,0-.17.13-.2.23-.16.51.45.63.45.63.03.2.29.41.95.45,1.13.08,2.53-.1,2.53-.1.06.15.28.27.89.37,1.01.16,1.56.12,2.57-.27,1.01-.39,1.67-.47,1.67-.47,0,0,1.32.35,3.3.12,1.98-.23,6.3-1.63,7.15-1.75l-.47.23Z"/>
    </g>
  </g>
</svg>