<?xml version="1.0" encoding="UTF-8"?>
<svg id="Layer_2" data-name="Layer 2" xmlns="http://www.w3.org/2000/svg" viewBox="0 0 211.48 22.8">
  <defs>
    <style>
      .cls-1 {
        fill: none;
        stroke: #231f20;
        stroke-miterlimit: 3.86;
      }

      .cls-2 {
        fill: #fc3;
        fill-rule: evenodd;
        stroke-width: 0px;
      }
    </style>
  </defs>
  <g id="Layer_1-2" data-name="Layer 1">
    <path class="cls-2" d="m75.8,17.33c-5.58.38-8.57-3.59-13.12-3.19-4.28.37-7.21,4.53-13.38,4.94-4.45.3-6.84-2.86-10.47-2.55-3.41.3-5.77,3.61-10.69,3.94-3.33.22-5.11-2.14-7.83-1.9-2.55.22-4.22,2.76-7.9,3.01-2.2.15-3.38-1.42-5.18-1.26-1.69.15-2.82,1.8-5.25,1.96-2.11.15-1.71-.55-.37-.9,2.42-.47,3.09-2.19,4.76-2.54,1.78-.38,3.43.95,5.62.53,3.66-.71,4.61-3.34,7.14-3.88,2.69-.57,5.18,1.44,8.49.8,4.9-.95,6.32-4.4,9.7-5.12,3.59-.77,6.93,1.93,11.36,1.07,6.13-1.19,7.9-5.52,12.13-6.42,4.5-.96,11.39,1.47,16.94.39l55.65-.79c5.58-.38,10.87,3.65,15.42,3.25,4.28-.37,7.21-4.53,13.38-4.94,4.45-.3,6.84,2.86,10.47,2.55,3.41-.3,5.77-3.61,10.69-3.94,3.33-.22,5.11,2.14,7.83,1.91,2.55-.22,4.22-2.76,7.9-3.01,2.2-.15,3.38,1.42,5.18,1.26,1.69-.15,2.82-1.8,5.25-1.96,2.11-.15,1.71.55.37.9-2.42.47-3.09,2.19-4.76,2.54-1.78.38-3.43-.95-5.62-.53-3.66.71-4.61,3.34-7.14,3.88-2.69.57-5.18-1.44-8.49-.8-4.9.95-6.32,4.4-9.7,5.12-3.59.77-6.93-1.93-11.36-1.07-6.13,1.19-7.9,5.52-12.13,6.42-4.5.96-11.39-1.47-16.94-.39l-57.96.73Z"/>
    <path class="cls-1" d="m75.8,17.33c-5.58.38-8.57-3.59-13.12-3.19-4.28.37-7.21,4.53-13.38,4.94-4.45.3-6.84-2.86-10.47-2.55-3.41.3-5.77,3.61-10.69,3.94-3.33.22-5.11-2.14-7.83-1.9-2.55.22-4.22,2.76-7.9,3.01-2.2.15-3.38-1.42-5.18-1.26-1.69.15-2.82,1.8-5.25,1.96-2.11.15-1.71-.55-.37-.9,2.42-.47,3.09-2.19,4.76-2.54,1.78-.38,3.43.95,5.62.53,3.66-.71,4.61-3.34,7.14-3.88,2.69-.57,5.18,1.44,8.49.8,4.9-.95,6.32-4.4,9.7-5.12,3.59-.77,6.93,1.93,11.36,1.07,6.13-1.19,7.9-5.52,12.13-6.42,4.5-.96,11.39,1.47,16.94.39l55.65-.79c5.58-.38,10.87,3.65,15.42,3.25,4.28-.37,7.21-4.53,13.38-4.94,4.45-.3,6.84,2.86,10.47,2.55,3.41-.3,5.77-3.61,10.69-3.94,3.33-.22,5.11,2.14,7.83,1.91,2.55-.22,4.22-2.76,7.9-3.01,2.2-.15,3.38,1.42,5.18,1.26,1.69-.15,2.82-1.8,5.25-1.96,2.11-.15,1.71.55.37.9-2.42.47-3.09,2.19-4.76,2.54-1.78.38-3.43-.95-5.62-.53-3.66.71-4.61,3.34-7.14,3.88-2.69.57-5.18-1.44-8.49-.8-4.9.95-6.32,4.4-9.7,5.12-3.59.77-6.93-1.93-11.36-1.07-6.13,1.19-7.9,5.52-12.13,6.42-4.5.96-11.39-1.47-16.94-.39l-57.96.73Z"/>
  </g>
</svg>