<?xml version="1.0" encoding="UTF-8"?>
<svg id="Layer_2" data-name="Layer 2" xmlns="http://www.w3.org/2000/svg" viewBox="0 0 13.01 13.06">
  <defs>
    <style>
      .cls-1 {
        fill: #e4e4c9;
        stroke: #231f20;
        stroke-miterlimit: 3.86;
      }
    </style>
  </defs>
  <g id="Layer_1-2" data-name="Layer 1">
    <path class="cls-1" d="m7.3,1.01l1.15,2.48c.12.27.37.45.66.5l2.66.41c.7.11.99.96.5,1.47l-1.99,2.07c-.19.2-.28.47-.23.75l.46,2.86c.12.72-.65,1.26-1.29.9l-2.28-1.27c-.27-.15-.59-.15-.86,0l-2.28,1.27c-.64.36-1.41-.18-1.29-.9l.46-2.86c.04-.27-.04-.55-.23-.75l-1.99-2.07c-.49-.51-.2-1.36.5-1.47l2.66-.41c.29-.04.54-.23.66-.5l1.15-2.48c.31-.68,1.28-.68,1.59,0Z"/>
  </g>
</svg>