<?xml version="1.0" encoding="UTF-8"?>
<svg id="Layer_2" data-name="Layer 2" xmlns="http://www.w3.org/2000/svg" viewBox="0 0 61.86 61.86">
  <defs>
    <style>
      .cls-1, .cls-2 {
        fill: none;
        stroke: #231f20;
        stroke-miterlimit: 3.86;
      }

      .cls-2 {
        stroke-width: .5px;
      }

      .cls-3 {
        fill: #fc0;
        stroke-width: 0px;
      }
    </style>
  </defs>
  <g id="Layer_1-2" data-name="Layer 1">
    <g>
      <circle class="cls-3" cx="30.93" cy="30.93" r="30.43" transform="translate(-12.81 30.93) rotate(-45)"/>
      <circle class="cls-1" cx="30.93" cy="30.93" r="30.43" transform="translate(-12.81 30.93) rotate(-45)"/>
      <path class="cls-1" d="m9.54,26.36c5.45-2.55,10.22-2.1,13.88,1.22"/>
      <path class="cls-2" d="m9.58,26.39c4.12,3.55,9.57,4.23,13.84,1.18"/>
      <path class="cls-1" d="m14.8,29.15c-.67-.54-1.11-1.37-1.11-2.3,0-.76.28-1.45.76-1.97"/>
      <path class="cls-1" d="m19,25.12c.35.49.56,1.08.56,1.73,0,1.17-.68,2.18-1.67,2.65"/>
      <path class="cls-1" d="m16.51,27.81c-.45-.08-.78-.48-.78-.95,0-.53.43-.96.96-.96.06,0,.11,0,.18.02"/>
      <path class="cls-2" d="m10.16,24.47c4.57-1.97,8.63-1.78,11.94.46"/>
      <path class="cls-2" d="m21.59,47.02s.11-1.37.72-1.53"/>
      <path class="cls-2" d="m28.45,51.79s1.11-.95,2.06-1.03"/>
      <path class="cls-1" d="m50.53,26.36c-5.45-2.55-10.22-2.1-13.88,1.22"/>
      <path class="cls-2" d="m50.49,26.39c-4.12,3.55-9.57,4.23-13.84,1.18"/>
      <path class="cls-1" d="m45.27,29.15c.67-.54,1.11-1.37,1.11-2.3,0-.76-.28-1.45-.76-1.97"/>
      <path class="cls-1" d="m41.07,25.12c-.35.49-.56,1.08-.56,1.73,0,1.17.68,2.18,1.67,2.65"/>
      <path class="cls-1" d="m43.57,27.81c.45-.08.78-.48.78-.95,0-.53-.43-.96-.96-.96-.06,0-.11,0-.18.02"/>
      <path class="cls-2" d="m49.91,24.47c-4.57-1.97-8.63-1.78-11.94.46"/>
      <path class="cls-2" d="m40.54,47.06s-.11-1.37-.72-1.53"/>
      <path class="cls-2" d="m34.46,51.79s-1.11-.95-2.06-1.03"/>
      <path class="cls-1" d="m26.16,37.89c-1.37,1.82-1.22,2.99.45,3.52.29.08.46.01.52-.21-.02-.82.35-1.58.75-1.71,1.68,0,.84,2.17,3.17,2.48h.5c2.33-.31,1.49-2.48,3.17-2.48.4.13.77.9.75,1.71.06.22.23.29.52.21,1.66-.53,1.81-1.7.45-3.52"/>
      <path class="cls-1" d="m52.3,20.94c-3.74-3.66-12.88-1.37-17.6,3.36"/>
      <path class="cls-2" d="m34.72,24.3l.48,9.23s.27,1.33.99,1.83"/>
      <path class="cls-2" d="m28.2,32.53l-.05,1s-.27,1.33-.99,1.83"/>
      <path class="cls-1" d="m8.14,21.28c8.96-2.71,15.79-1.71,20.5,3.01"/>
      <line class="cls-2" x1="28.66" y1="24.3" x2="28.26" y2="31.46"/>
      <path class="cls-2" d="m21.87,46.11s1.97.04,3.19-.11,1.3-.11,1.64-.42c.34-.31,1.79-1.18,2.67-1.03.88.15,1.07,1.41,1.79,1.37.72.04.88-1.22,1.75-1.37.88-.15,2.33.72,2.67,1.03.34.31.42.27,1.64.42"/>
      <path class="cls-1" d="m40.44,46.11s-.24.34-1.43.53c-1.18.19-3.32.5-3.89.15-.57-.34-1.75-1.14-2.44-.53-.69.61-.99.84-1.49.84s-.92-.23-1.6-.84c-.69-.61-1.87.19-2.44.53s-2.71.04-3.89-.15c-1.18-.19-1.41-.53-1.41-.53"/>
      <path class="cls-2" d="m37.24,45.99c1.22.15,3.19.11,3.19.11"/>
      <path class="cls-2" d="m27.82,48.09s-.05,2.17.98,2.56,1.94-.04,2.25.04h.53c.31-.08,1.22.34,2.25-.04,1.03-.38.99-2.56.99-2.56"/>
      <path class="cls-1" d="m34.84,48.09s-.97,1.68-2.19,1.75c-1.22.08-.9-.15-1.32-.15-.39,0-.13.23-1.35.15-1.22-.08-2.17-1.75-2.17-1.75"/>
    </g>
  </g>
</svg>