<?xml version="1.0" encoding="UTF-8"?>
<svg id="Layer_2" data-name="Layer 2" xmlns="http://www.w3.org/2000/svg" viewBox="0 0 606.26 403.56">
  <defs>
    <style>
      .cls-1 {
        stroke-width: .94px;
      }

      .cls-1, .cls-2, .cls-3 {
        fill: none;
        stroke: #231f20;
        stroke-miterlimit: 3.86;
      }

      .cls-4, .cls-5, .cls-6, .cls-7, .cls-8, .cls-9, .cls-10, .cls-11, .cls-12, .cls-13, .cls-14 {
        stroke-width: 0px;
      }

      .cls-4, .cls-7, .cls-11, .cls-12 {
        fill-rule: evenodd;
      }

      .cls-4, .cls-14 {
        fill: #edeae5;
      }

      .cls-5 {
        fill: #666;
      }

      .cls-6 {
        fill: #633;
      }

      .cls-2 {
        stroke-width: .5px;
      }

      .cls-7 {
        fill: #c96;
      }

      .cls-8, .cls-12 {
        fill: #cedae0;
      }

      .cls-9 {
        fill: #333;
      }

      .cls-10, .cls-11 {
        fill: #ccc;
      }

      .cls-13 {
        fill: #f3efd7;
      }
    </style>
  </defs>
  <g id="Layer_1-2" data-name="Layer 1">
    <path class="cls-5" d="m515.85,1.81c.29,1.31.45,3.13.45,4.48,0,9.53-7.72,17.25-17.25,17.25-.64,0-.85.39-1.47.32-.8,1.77-1.73,3.47-2.79,5.08-.86,16.23-14.29,29.12-30.73,29.12-1.51,0-3-.11-4.46-.32-5.62,6.04-13.64,9.82-22.54,9.82-4.15,0-8.1-.82-11.71-2.31-3.23,2.38-7.22,3.78-11.54,3.78s-8.13-1.34-11.32-3.62c-4.82,2.32-10.22,3.62-15.93,3.62-11.52,0-21.8-5.3-28.54-13.6-2.87.72-5.87,1.1-8.96,1.1-18.47,0-33.75-13.62-36.36-31.37-8.14-4.9-13.83-13.47-14.78-23.41l217.93.05h0Z"/>
    <path class="cls-12" d="m605.95,352.07c-8.92-8.59-21.04-13.86-34.39-13.86-4.84,0-9.52.69-13.95,1.99-2.06-8.7-7.38-16.15-14.59-20.99.02-.47.03-.94.03-1.42,0-19.33-15.67-34.99-34.99-34.99-4.32,0-8.46.78-12.28,2.22-5.94-10.86-17.47-18.22-30.72-18.22-8.22,0-15.77,2.83-21.74,7.57-7.24-11.89-20.32-19.83-35.26-19.83-1.95,0-3.87.14-5.75.4-.12-14.71-7.95-27.58-19.63-34.79.09-1.11.13-2.23.13-3.36,0-15.65-8.71-29.26-21.55-36.25-2.33-8.9-6.05-17.04-11.98-23.71.02-.43.03-.85.03-1.29,0-12.26-9.39-22.33-21.37-23.4-7.96-17.54-25.62-29.73-46.13-29.73-4.98,0-9.84,0-14.36,1.35l-14,13.47.04,227.57c-8.71,1.32-15.85,5.99-20.62,12.95-1.1-.37-2.23-.68-3.37-.93-6-15.37-20.95-26.26-38.44-26.26-12.4,0-23.52,5.47-31.08,14.13l-.17-99.85c-16.64.91-30.68,11.45-36.33,26.34-5.16-2.32-10.89-3.62-16.92-3.62-6.33,0-12.33,1.43-17.69,3.98-7.14-5.92-16.31-9.48-26.31-9.48-16.45,0-30.65,9.63-37.27,23.56-.74-.04-1.48-.06-2.23-.06-8.41,0-16.24,2.52-22.77,6.85l.02,111.15h605.5l.14-51.47v-.02Z"/>
    <path class="cls-8" d="m515.84,1.09c.29,1.31.45,3.13.45,4.48,0,9.53-7.72,17.25-17.25,17.25-.64,0-.85.39-1.47.32-.8,1.77-1.73,3.47-2.79,5.08-.86,16.23-14.29,29.12-30.73,29.12-1.51,0-3-.11-4.46-.32-5.62,6.04-13.64,9.82-22.54,9.82-4.15,0-8.1-.82-11.71-2.31-3.23,2.38-7.22,3.78-11.54,3.78s-8.13-1.34-11.32-3.62c-4.82,2.32-10.22,3.62-15.93,3.62-11.52,0-21.8-5.3-28.54-13.6-2.87.72-5.87,1.1-8.96,1.1-18.47,0-33.75-13.62-36.36-31.37-8.14-4.9-13.83-13.47-14.78-23.41l217.93.05h0Z"/>
    <path class="cls-4" d="m335.79,15.57c8.4,8.21,13.5,11.75,27.25,13.25-12.75,1.25-21.65-.75-27.25-13.25ZM515.84,1.09c.29,1.31.45,3.13.45,4.48,0,9.53-7.72,17.25-17.25,17.25-.64,0-.85.39-1.47.32-.8,1.77-1.73,3.47-2.79,5.08-.86,16.23-14.29,29.12-30.73,29.12-1.51,0-3-.11-4.46-.32-5.62,6.04-13.64,9.82-22.54,9.82-4.15,0-8.1-.82-11.71-2.31-3.23,2.38-7.22,3.78-11.54,3.78s-8.13-1.34-11.32-3.62c-4.82,2.32-10.22,3.62-15.93,3.62-11.52,0-21.8-5.3-28.54-13.6-2.87.72-5.87,1.1-8.96,1.1-18.47,0-33.75-13.62-36.36-31.37-8.14-4.9-13.83-13.47-14.78-23.41h1.88c3.14,12.48,8.48,18.76,17.01,18.78,9.52,22.13,25.1,31.88,46.75,29.25,15.24,10.79,33.32,11.63,54.25,2.5,9.44,9.38,30,10.25,39-3.25,22.57-1.71,35.41-12.37,38.5-32,11.19,1.17,18.03-4.17,20.5-16l.05.77h-.01Zm-81.34.34c.16,2.18.2,4.43-.09,6.71-2.21,17.6-19.35,30.55-38.27,28.92-9.38-.8-17.43-5.04-22.91-11.24,11.75,9.75,25.22,7.43,34.81,5.25,17-1,23.5-12.25,26.25-22.5,0,0,.21-7.14.21-7.14Z"/>
    <path class="cls-6" d="m252.43,91.11l-10.66.3v-8.71h-11.71v8.71h-17.71v-8.71h-11.71v8.71h-17.71v-8.71h-11.71v8.71h-10.93l46.17-48.84,45.97,48.54h0Zm-45.47-69.96s3.41,2.28,6.31,2c2.91-.29,9.22-1.71,12.73,5.43,1.75,3.56,3.4,4.85,4.61,5.25,1.22.13,2-.1,2-.1,0,0-.78.5-2,.1-1.19-.13-2.81-.62-4.52-2.04-3.46-2.87-9.69-2.3-12.55-2.18-2.87.11-6.23-.8-6.23-.8l-.35-7.64v-.02Z"/>
    <polygon class="cls-7" points="252.29 91.32 206.54 43.57 219.29 91.82 231.04 91.65 230.42 82.57 241.92 82.57 241.67 91.48 252.29 91.32"/>
    <path class="cls-11" d="m160.21,115.88l-17.84-17.14-.02-16.49h11.71v8.71h17.71v-8.71h11.71v8.71h17.71v-8.71h11.71v8.71h17.71v-8.71h11.71v8.71h17.71v-8.71h11.71l.05,16.31-18.01,17.32.41,227.32c-8.7,1.32-16.22,6.24-20.98,13.2-1.1-.37-2.23-.68-3.37-.93-6-15.37-20.95-26.26-38.44-26.26-12.56,0-23.68,5-31.25,13.86l.08-227.18h-.02Z"/>
    <polygon class="cls-13" points="236.01 166.32 236.01 228.82 233.76 228.82 233.76 175.44 233.77 175.44 233.77 179.34 236.01 166.32"/>
    <polygon class="cls-14" points="253.51 118.81 253.51 346.07 251.26 346.07 251.26 175.44 251.27 175.44 251.27 131.82 253.51 118.81"/>
    <polygon class="cls-13" points="238.4 231.7 171.23 231.7 171.23 229.45 181.77 229.45 181.77 229.46 239.54 229.46 238.4 231.7"/>
    <polygon class="cls-14" points="154.04 82.96 154.04 91.57 171.23 91.57 171.23 93.82 153.78 93.82 153.78 93.69 152.9 93.69 152.9 85.2 142.35 85.2 142.35 82.95 152.9 82.95 152.9 82.96 154.04 82.96"/>
    <polygon class="cls-14" points="183.04 82.96 183.04 91.57 200.23 91.57 200.23 93.82 182.78 93.82 182.78 93.69 181.9 93.69 181.9 85.2 171.35 85.2 171.35 82.95 181.9 82.95 181.9 82.96 183.04 82.96"/>
    <polygon class="cls-14" points="212.66 82.96 212.66 91.57 229.85 91.57 229.85 93.82 212.4 93.82 212.4 93.69 211.52 93.69 211.52 85.2 200.98 85.2 200.98 82.95 211.52 82.95 211.52 82.96 212.66 82.96"/>
    <polygon class="cls-14" points="242.04 82.96 242.04 91.57 259.23 91.57 259.23 93.82 241.78 93.82 241.78 93.69 240.9 93.69 240.9 85.2 230.35 85.2 230.35 82.95 240.9 82.95 240.9 82.96 242.04 82.96"/>
    <polygon class="cls-14" points="271.54 82.96 271.54 91.57 271.28 93.82 271.28 93.69 270.4 93.69 270.4 85.2 259.85 85.2 259.85 82.95 270.4 82.95 270.4 82.96 271.54 82.96"/>
    <path class="cls-4" d="m253.32,143.36c9.64-3.27,19.33,2.05,22.49,13.28,15.07-4.52,24.19-1.04,27.45,10.15-4.21-1.55-8.75-2.37-13.63-2.37-1.48,0-2.99.08-4.38.24-9.15,1-17.34,5.08-23.54,11.18l.86-.71c16.93-3.75,28.52-1.75,34.75,6,9.61-5.76,19.11-6.51,28.5-2.25,13.33-3.23,25.25,2.11,35.75,16,14.75.25,24.25,25.5,8.25,51.75,6.4-7.77,10.24-14.02,11.5-18.75,14.63,7.04,20.63,20.04,18,39,15.89-7.97,31.73-1.47,47.5,19.5,16.88-8.75,32.88-5.25,48,10.5,20.77-9.59,46.5,1,44.5,31.5,8.95-.38,14.95,5.62,18,18,12.02-4.04,24.89-6.36,36.11-2.21l12.53,7.73c-8.92-8.59-21.04-13.86-34.39-13.86-4.84,0-9.52.69-13.95,1.99-2.06-8.7-7.38-16.15-14.59-20.99.02-.47.03-.94.03-1.42,0-19.33-15.67-34.99-34.99-34.99-4.32,0-8.46.78-12.28,2.22-5.94-10.86-17.47-18.22-30.72-18.22-8.22,0-15.77,2.83-21.74,7.57-7.24-11.89-20.32-19.83-35.26-19.83-1.95,0-3.87.14-5.75.4-.12-14.71-7.95-27.58-19.63-34.79.09-1.11.13-2.23.13-3.36,0-15.31-8.34-28.67-20.72-35.79-2.33-8.9-6.88-17.51-12.82-24.18.02-.43.03-.85.03-1.29,0-12.26-9.39-22.33-21.37-23.4-7.96-17.54-25.62-29.73-46.13-29.73-4.84,0-10.05.17-14.45,1.44l-13.9,13.37-.13,26.3v.02Zm50.49,107.03c16.25-5,41.5.75,36.5,27h1c6.33-15,2-26-13-33,4-39-38.5-54-61.5-39,22-13.5,51.75,15.5,38,45h-1Zm212.5,87.5c-14.29-14.02-27.62-18.02-40-12-8.95-14.31-19.28-16.48-31-6.5-14.11-7.98-25.28-9.81-33.5-5.5-1.97-14.43-8.63-22.43-20-24-8.5-12.35-26.83-16.01-52-9,8.01-3.89,18.01-6.06,30-6.5l.79.19c1.11-.1,2.34-.15,3.53-.15,20.62,0,37.58,15.69,39.59,35.79,2.56-.52,5.2-.79,7.91-.79,6.5,0,12.63,1.56,18.05,4.32,4.71-2.54,10.1-3.99,15.83-3.99,9.89,0,18.78,4.31,24.88,11.16,2.14-.43,4.35-.66,6.62-.66,13.03,0,24.32,7.48,29.8,18.39l-.5-.75h0Zm-77.59,65.35c-2.13-8.13-13.6-12.07-21.41-8.35-1.9-7.61-7.99-9.43-11.49-6.91,0,5.09-1.44,10-4.03,13.97l-2.98.19c1.06-12.96-2.19-19.71-9.75-20.25,1.25-12.25-9.5-23-26.5-19.25,3.71-19.81-36.04-39.39-54.28-14.48,2.9-6.94,8.59-12.41,15.72-15l.49-.48c-23.47-15.39-49.72-7.92-57.44,19.21-11.71-6.62-22.88-4.92-34.17,5.69,5.6-8.18,15-13.55,25.67-13.55,2.75,0,5.42.36,7.96,1.03,1.07-16.21,14.56-29.03,31.04-29.03,11.84,0,22.14,6.62,27.39,16.35,2.88-.88,5.94-1.35,9.11-1.35,9.42,0,17.86,4.19,23.57,10.8.31-.01.62-.02.93-.02,12.57,0,23,9.16,24.98,21.17,9.37,1.1,17.29,7.29,20.72,15.75,5.23,1.82,9.82,4.99,13.36,9.09.31-.01.62-.02.93-.02,10.41,0,19.36,6.29,23.25,15.27l-3.09.15.02.02Zm-278.91-144.35c-17.15-.34-29.65,7.49-37.5,23.5-20.6-9-36.27-9-47,0-18.36-6.38-36.53-1.38-54.5,15-4.08-7.12-12.26-9.61-20.52-5.15,6.52-4.33,14.35-6.85,22.77-6.85.75,0,1.49.02,2.23.06,6.62-13.93,20.82-23.56,37.27-23.56,10,0,19.17,3.56,26.31,9.48,5.36-2.55,11.36-3.98,17.69-3.98s11.76,1.29,16.92,3.62c5.65-14.88,19.66-25.65,36.3-26.56l.03,14.44Zm-52.75,93.25c0-10.25,6.67-8.52,8.75-8-2-12.75,3.5-19.25,16.5-17.25-2.25-13.25,14.03-23.03,27.5-23l.12-7h-.37c-14.76,0-27.05,10.74-29.35,24.83l-.43.64c-13.06.53-23.48,11.25-23.55,24.42l.84,5.36h0Zm146.98,38.92c.51-2.09.79-4.27.79-6.51,0-13.24-9.46-24.59-21.95-26.97-1.1-.37-2.23-.68-3.37-.93-6-15.37-20.95-26.26-38.44-26.26-20.15,0-36.61,14.4-40.34,33.5,8.59-16.25,13.34-32.75,40.09-20.75,17.4-5.93,35.75,1.75,37.75,19,14.52,1.19,23.16,11.28,25.48,28.92h0Z"/>
    <path class="cls-2" d="m233.13,356.94c12.49,2.38,22.02,13.4,22.02,26.64,0,2.24-.27,4.43-.79,6.51"/>
    <path class="cls-3" d="m107.31,403.35c.6-22.22,18.86-40.03,41.23-40.03.66,0,1.32.02,1.97.05,3.61-19.1,20.38-33.55,40.53-33.55,17.49,0,32.45,10.89,38.44,26.26,1.15.25,2.27.56,3.37.93,5.6-8.18,15.02-13.55,25.69-13.55,2.75,0,5.42.36,7.96,1.03,1.07-16.21,14.56-29.03,31.04-29.03,11.84,0,22.14,6.62,27.39,16.35,2.88-.88,5.94-1.35,9.11-1.35,9.42,0,17.86,4.19,23.57,10.8.31-.01.62-.02.93-.02,12.57,0,23,9.16,24.98,21.17,12.58,1.48,22.34,12.17,22.34,25.15,0,5.09-1.5,9.84-4.09,13.81"/>
    <path class="cls-3" d="m.28,291.67c6.52-4.33,14.35-6.85,22.77-6.85.75,0,1.49.02,2.23.06,6.62-13.93,20.82-23.56,37.27-23.56,10,0,19.17,3.56,26.31,9.48,5.36-2.55,11.36-3.98,17.69-3.98s11.76,1.29,16.92,3.62c5.65-14.88,19.66-25.65,36.3-26.56"/>
    <path class="cls-2" d="m307.15,365.31c-.64-2.3-.98-4.73-.98-7.23,0-12.42,8.29-22.9,19.75-26.1"/>
    <path class="cls-2" d="m382.37,220.29c-.88,10.14-5.51,19.2-12.55,25.74"/>
    <path class="cls-3" d="m261.68,175.28c6.2-6.1,14.39-10.18,23.54-11.18,1.39-.16,2.9-.24,4.38-.24,8.11,0,15.28,2.24,21.57,6.4,5.56-4.25,14.21-3.87,14.21-3.87,8.91.5,17.07,3.83,23.59,9.1,19.24,3.5,33.82,20.34,33.82,40.58,0,1.13-.05,2.25-.14,3.36,11.69,7.21,19.51,20.08,19.63,34.79,1.88-.26,3.8-.4,5.75-.4,14.94,0,28.02,7.94,35.26,19.83,5.97-4.74,13.53-7.57,21.74-7.57,13.25,0,24.78,7.36,30.72,18.22,3.82-1.43,7.96-2.22,12.28-2.22,19.33,0,34.99,15.67,34.99,34.99,0,.47,0,.95-.03,1.42,7.21,4.84,12.52,12.28,14.59,20.99,4.42-1.29,9.11-1.99,13.95-1.99,13.35,0,25.48,5.28,34.39,13.86"/>
    <path class="cls-3" d="m267.43,103.75c4.52-1.34,9.38-2.06,14.36-2.06,20.51,0,38.18,12.2,46.13,29.73,11.98,1.08,21.37,11.15,21.37,23.4,0,.43-.01.86-.03,1.29,5.94,6.67,10.34,14.73,12.67,23.63"/>
    <path class="cls-2" d="m327.38,131.11c4.91,2.27,8.41,7.27,8.41,13.08"/>
    <path class="cls-2" d="m106.21,346.22c.07-13.17,10.5-23.89,23.55-24.42l.43-.64c2.3-14.09,14.59-24.83,29.35-24.83h.37"/>
    <path class="cls-2" d="m106.83,351.87c-.41-1.78-.62-3.62-.62-5.52"/>
    <path class="cls-2" d="m95.05,358.09v-.26c0-6.05,4.71-10.98,10.75-11.24"/>
    <path class="cls-2" d="m411.68,56.48c-2.47,3.31-5.66,6.05-9.32,8.02"/>
    <line class="cls-3" x1="231.2" y1="159.55" x2="239.37" y2="159.55"/>
    <line class="cls-3" x1="170.13" y1="159.55" x2="177.72" y2="159.55"/>
    <line class="cls-3" x1="159.79" y1="343.68" x2="159.79" y2="115.85"/>
    <line class="cls-3" x1="253.48" y1="115.85" x2="253.48" y2="344.07"/>
    <polyline class="cls-3" points="142.03 99.36 142.01 82.86 153.72 82.86 153.72 91.57 171.43 91.57 171.43 82.86 183.14 82.86 183.14 91.57 200.85 91.57 200.85 82.86 212.56 82.86 212.56 91.57 230.27 91.57 230.27 82.86 241.98 82.86 241.98 91.57 259.69 91.57 259.69 82.86 271.4 82.86 271.44 99.18 253.44 116.5"/>
    <line class="cls-3" x1="159.87" y1="116.5" x2="141.82" y2="99.18"/>
    <line class="cls-3" x1="253.47" y1="116.5" x2="159.83" y2="116.5"/>
    <path class="cls-1" d="m165.15,116.51v-5.09c0-4.61,3.28-8.35,7.33-8.35s7.33,3.74,7.33,8.35v4.78"/>
    <path class="cls-1" d="m198.99,116.51v-5.09c0-4.61,3.28-8.35,7.33-8.35s7.33,3.74,7.33,8.35v4.78"/>
    <path class="cls-1" d="m232.84,116.51v-5.09c0-4.61,3.28-8.35,7.33-8.35s7.33,3.74,7.33,8.35v4.78"/>
    <line class="cls-2" x1="141.94" y1="99.29" x2="271.18" y2="99.29"/>
    <polyline class="cls-3" points="160.72 91.47 206.68 42.73 252.64 91.27"/>
    <path class="cls-3" d="m169.87,159.29c2.22-17.3,16.9-30.66,34.69-30.66s32.6,13.54,34.73,31"/>
    <path class="cls-9" d="m177.32,163.84c0-15.14,12.2-27.42,27.24-27.42s27.24,12.28,27.24,27.42l-.03,64.42h-54.55l.1-64.42h0Z"/>
    <path class="cls-3" d="m177.32,163.84c0-15.14,12.2-27.42,27.24-27.42s27.24,12.28,27.24,27.42l-.03,64.42h-54.55l.1-64.42h0Z"/>
    <line class="cls-3" x1="235.77" y1="159.55" x2="235.77" y2="228.95"/>
    <line class="cls-3" x1="173.5" y1="159.55" x2="173.5" y2="228.7"/>
    <rect class="cls-3" x="171.22" y="228.96" width="68.26" height="11.71"/>
    <path class="cls-3" d="m207.18,21.31s3.41,2.28,6.31,2c2.91-.29,9.22-1.71,12.73,5.43s6.61,5.14,6.61,5.14c0,0-3.06.94-6.52-1.94-3.46-2.87-9.69-2.3-12.55-2.18-2.87.11-6.23-.8-6.23-.8"/>
    <path class="cls-10" d="m207.06,20.7v22.32h-1.71v-22.32c-.43-.28-.71-.77-.71-1.32,0-.87.7-3.28,1.57-3.28s1.57,2.42,1.57,3.28c0,.55-.28,1.04-.71,1.32h0Z"/>
    <path class="cls-3" d="m207.06,20.7v22.32h-1.71v-22.32c-.43-.28-.71-.77-.71-1.32,0-.87.7-3.28,1.57-3.28s1.57,2.42,1.57,3.28c0,.55-.28,1.04-.71,1.32h0Z"/>
    <path class="cls-2" d="m345.59,26.07c-4.62-1.86-8.24-5.67-9.87-10.41-7.96-1.07-14.26-7.56-14.87-15.64"/>
    <path class="cls-2" d="m484.39,1.34c-5.13,8.17-13.49,14.11-23.29,16.04-2.52,6.41-8.76,10.95-16.06,10.95-2.28,0-4.46-.44-6.46-1.25"/>
    <path class="cls-2" d="m434.5,1.43c.16,2.18.2,4.43-.09,6.71-2.21,17.6-19.35,30.55-38.27,28.92-9.38-.8-17.43-5.04-22.91-11.24"/>
    <path class="cls-3" d="m404.25,378.18c5.23,1.82,9.82,4.99,13.36,9.09.31-.01.62-.02.93-.02,10.41,0,19.36,6.29,23.25,15.27"/>
    <line class="cls-2" x1="214.68" y1="337.32" x2="253.54" y2="337.32"/>
    <line class="cls-2" x1="160.29" y1="337.32" x2="167.3" y2="337.32"/>
    <line class="cls-2" x1="160.29" y1="318.01" x2="253.54" y2="318.01"/>
    <line class="cls-2" x1="160.29" y1="298.69" x2="253.54" y2="298.69"/>
    <line class="cls-2" x1="160.29" y1="279.37" x2="253.54" y2="279.37"/>
    <line class="cls-2" x1="160.29" y1="260.05" x2="253.54" y2="260.05"/>
    <line class="cls-2" x1="239.27" y1="240.73" x2="253.54" y2="240.73"/>
    <line class="cls-2" x1="236.17" y1="221.41" x2="253.54" y2="221.41"/>
    <line class="cls-2" x1="160.29" y1="240.73" x2="170.92" y2="240.73"/>
    <line class="cls-2" x1="160.29" y1="221.41" x2="173.75" y2="221.41"/>
    <line class="cls-2" x1="236.12" y1="202.1" x2="253.54" y2="202.1"/>
    <line class="cls-2" x1="236.05" y1="182.78" x2="253.54" y2="182.78"/>
    <line class="cls-2" x1="236.21" y1="163.46" x2="253.54" y2="163.46"/>
    <line class="cls-2" x1="160.29" y1="202.1" x2="173.09" y2="202.1"/>
    <line class="cls-2" x1="160.29" y1="182.78" x2="173.45" y2="182.78"/>
    <line class="cls-2" x1="160.29" y1="163.46" x2="173.67" y2="163.46"/>
    <line class="cls-2" x1="233.73" y1="144.14" x2="253.54" y2="144.14"/>
    <line class="cls-2" x1="160.29" y1="144.14" x2="175.87" y2="144.14"/>
    <line class="cls-2" x1="160.29" y1="124.82" x2="253.54" y2="124.82"/>
    <line class="cls-2" x1="178.54" y1="279.17" x2="178.54" y2="298.17"/>
    <line class="cls-2" x1="238.54" y1="279.17" x2="238.54" y2="298.17"/>
    <line class="cls-2" x1="211.54" y1="260.17" x2="211.54" y2="279.17"/>
    <line class="cls-2" x1="217.29" y1="317.67" x2="217.29" y2="336.67"/>
    <line class="cls-2" x1="243.79" y1="202.17" x2="243.79" y2="221.17"/>
    <line class="cls-2" x1="172.54" y1="124.92" x2="172.54" y2="143.92"/>
    <path class="cls-2" d="m252.93,132.88c4.77-4.23,11.05-6.79,17.92-6.79.78,0,1.5.03,2.33.1,5.59.48,10.75,2.67,14.85,6.05,9.93.61,17.88,8.77,17.88,18.9,0,.52-.26,1.34-.3,1.85,3.14,2.63,5.62,6.02,7.17,9.89.73,1.94,1.29,4.01,1.54,6.16"/>
    <path class="cls-2" d="m308.55,347.6c18.24-24.91,57.7-5.34,53.99,14.47,17-3.75,27.75,7,26.5,19.25,7.56.54,10.81,7.29,9.75,20.25"/>
    <path class="cls-2" d="m405.29,387.82c3.38-3.1,10-1.5,12,6.5,7.81-3.71,19.28.22,21.41,8.35"/>
    <path class="cls-2" d="m232.54,357.32c11.29-10.62,22.79-12.62,34.5-6,7.75-27.25,34.2-34.66,57.75-19"/>
    <path class="cls-2" d="m150.71,363.32c8.59-16.25,13.34-32.75,40.09-20.75,17.4-5.93,35.75,1.75,37.75,19,14.52,1.19,22.93,10.61,25.25,28.25"/>
    <path class="cls-2" d="m.29,292.07c8.26-4.46,16.42-2.37,20.5,4.75,17.97-16.38,36.14-21.38,54.5-15,10.73-9,26.4-9,47,0,7.85-16.01,20.35-23.84,37.5-23.5"/>
    <path class="cls-2" d="m381.29,227.32c14.63,7.04,20.63,20.04,18,39,15.89-7.97,31.73-1.47,47.5,19.5,16.88-8.75,32.88-5.25,48,10.5,20.77-9.59,46.5,1,44.5,31.5,8.95-.38,14.95,5.62,18,18,12.02-4.04,24.89-6.36,36.11-2.21"/>
    <path class="cls-3" d="m266.79,204.82c23-15,65.5,0,61.5,39,15,7,19.33,18,13,33"/>
    <path class="cls-2" d="m267.06,204.07c22-13.5,51.48,16.25,37.73,45.75"/>
    <path class="cls-3" d="m515.84,1.09h0c.29,1.31.45,3.13.45,4.48,0,9.53-7.72,17.25-17.25,17.25-.64,0-.85.39-1.47.32-.8,1.77-1.73,3.47-2.79,5.08-.86,16.23-14.29,29.12-30.73,29.12-1.51,0-3-.11-4.46-.32-5.62,6.04-13.64,9.82-22.54,9.82-4.15,0-8.1-.82-11.71-2.31-3.23,2.38-7.22,3.78-11.54,3.78s-8.13-1.34-11.32-3.62c-4.82,2.32-10.22,3.62-15.93,3.62-11.52,0-21.8-5.3-28.54-13.6-2.87.72-5.87,1.1-8.96,1.1-18.47,0-33.75-13.62-36.36-31.37-8.14-4.9-13.83-13.47-14.78-23.41"/>
  </g>
</svg>